# This file uses centimeters as units for non-parametric coordinates.

mtllib DoorR3.mtl
g default
v -0.174878 -1.803525 0.907941
v 0.174878 1.803525 0.907941
v 0.174878 1.648097 0.907941
v 0.174878 -0.012362 -0.907941
v -0.174878 -1.803525 0.590572
v 0.174878 -0.366619 -0.873052
v -0.174878 -1.794575 0.254947
v 0.174878 -0.707270 -0.769714
v -0.174878 1.401095 0.907941
v 0.174878 -1.021209 -0.601907
v -0.174878 1.154092 0.907941
v 0.174878 -1.296381 -0.376085
v -0.174878 0.907091 0.907941
v 0.174878 -1.522210 -0.100907
v -0.174878 0.660088 0.907941
v 0.174878 1.768630 0.553678
v -0.174878 0.413086 0.907941
v 0.174878 1.665294 0.213033
v -0.174878 0.166090 0.907941
v 0.174878 1.497492 -0.100912
v -0.174878 -0.080913 0.907941
v 0.174878 1.271663 -0.376085
v -0.174878 -0.327915 0.907941
v 0.174878 0.996486 -0.601913
v -0.174878 -0.574917 0.907941
v 0.174878 0.682547 -0.769714
v -0.174878 -0.821919 0.907941
v 0.174878 0.341901 -0.873052
v -0.174878 -1.068915 0.907941
v 0.174878 -0.095337 -0.133836
v -0.174878 -1.315918 0.907941
v 0.174878 -0.339936 -0.090020
v -0.174878 1.127641 0.206607
v 0.174878 -0.584535 -0.018571
v -0.174878 1.372239 0.360318
v 0.174878 -0.829129 0.080311
v -0.174878 -1.562920 0.907941
v 0.174878 -1.073728 0.206607
v -0.174878 -1.562920 0.590572
v 0.174878 -1.318321 0.360318
v -0.174878 -1.553970 -0.057880
v -0.174878 0.149256 -0.133836
v 0.174878 1.616839 0.590572
v -0.174878 0.393855 -0.090020
v -0.174878 0.638448 -0.018571
v 0.174878 0.883047 0.080311
v -0.174878 0.883047 0.080311
v 0.174878 0.638448 -0.018571
v -0.174878 1.616833 0.590572
v 0.174878 0.393855 -0.090020
v -0.174878 -1.318321 0.360318
v 0.174878 0.149256 -0.133836
v -0.174878 -1.073728 0.206607
v -0.174878 -0.829129 0.080311
v 0.174878 -1.553970 -0.057880
v 0.174878 -1.562920 0.590572
v -0.174878 -0.584535 -0.018571
v -0.174878 -0.339936 -0.090020
v 0.174878 -1.562920 0.907941
v 0.174878 1.372239 0.360318
v 0.174878 1.127641 0.206607
v 0.174878 -1.315918 0.907941
v 0.174878 -1.068915 0.907941
v 0.174878 -0.821919 0.907941
v 0.174878 -0.574917 0.907941
v 0.174878 -0.327915 0.907941
v 0.174878 -0.080913 0.907941
v 0.174878 0.166090 0.907941
v 0.174878 0.413092 0.907941
v 0.174878 0.660088 0.907941
v 0.174878 0.907091 0.907941
v 0.174878 1.154092 0.907941
v 0.174878 1.401095 0.907941
v -0.174878 -0.095337 -0.133836
v -0.174878 0.341901 -0.873052
v -0.174878 0.682547 -0.769714
v -0.174878 0.996486 -0.601913
v -0.174878 1.271663 -0.376085
v -0.174878 1.497492 -0.100912
v -0.174878 1.665294 0.213033
v -0.174878 1.768630 0.553678
v -0.174878 -1.522210 -0.100907
v -0.174878 -1.296381 -0.376085
v -0.174878 -1.021209 -0.601907
v -0.174878 -0.707270 -0.769714
v -0.174878 -0.366619 -0.873052
v -0.174878 -0.012362 -0.907941
v 0.174878 -1.794575 0.254947
v 0.174878 -1.803525 0.590572
v -0.174878 1.648097 0.907941
v -0.174878 1.803525 0.907941
v 0.174878 -1.803525 0.907941
vt 0.001368 0.384455
vt 0.001368 0.346110
vt 0.156297 0.343124
vt 0.145205 0.381096
vt 0.001368 0.422801
vt 0.129854 0.419069
vt 0.001368 0.461147
vt 0.110247 0.457041
vt 0.001368 0.499493
vt 0.086384 0.495013
vt 0.001368 0.537839
vt 0.050638 0.532986
vt 0.569898 0.039345
vt 0.520628 0.039345
vt 0.520628 0.001992
vt 0.569898 0.001992
vt 0.419959 0.040734
vt 0.468524 0.003381
vt 0.569898 0.116036
vt 0.461020 0.115289
vt 0.484882 0.077317
vt 0.569898 0.077691
vt 0.569898 0.154381
vt 0.441413 0.153262
vt 0.569898 0.192727
vt 0.426062 0.191234
vt 0.569898 0.231073
vt 0.414970 0.229207
vt 0.109249 0.540508
vt 0.157988 0.514458
vt 0.235765 0.123443
vt 0.129854 0.153262
vt 0.110247 0.115289
vt 0.200707 0.080724
vt 0.569898 0.269419
vt 0.408168 0.267179
vt 0.569898 0.307765
vt 0.408168 0.305151
vt 0.200707 0.479399
vt 0.086384 0.077317
vt 0.157987 0.045665
vt 0.569898 0.346110
vt 0.414970 0.343124
vt 0.235765 0.436679
vt 0.261816 0.387942
vt 0.163099 0.305151
vt 0.277858 0.335059
vt 0.163099 0.267179
vt 0.283275 0.280061
vt 0.413280 0.045665
vt 0.156297 0.229207
vt 0.277858 0.225064
vt 0.001368 0.561968
vt 0.056366 0.556551
vt 0.145205 0.191234
vt 0.261816 0.172180
vt 0.001368 0.077691
vt 0.001368 0.039345
vt 0.050638 0.039345
vt 0.151307 0.040734
vt 0.001368 0.307765
vt 0.001368 0.269419
vt 0.001368 0.231073
vt 0.001368 0.192727
vt 0.001368 0.154381
vt 0.001368 0.116036
vt 0.309451 0.172180
vt 0.335502 0.123443
vt 0.514901 0.556551
vt 0.462017 0.540508
vt 0.484882 0.495013
vt 0.520628 0.532985
vt 0.050638 0.001992
vt 0.102742 0.003381
vt 0.001368 0.001992
vt 0.293408 0.225064
vt 0.569898 0.561968
vt 0.569898 0.537839
vt 0.287992 0.280061
vt 0.685532 0.960655
vt 0.685532 0.998008
vt 0.631235 0.998008
vt 0.631235 0.960655
vt 0.293408 0.335059
vt 0.309451 0.387942
vt 0.335501 0.436679
vt 0.426062 0.381096
vt 0.370560 0.479399
vt 0.441413 0.419069
vt 0.685532 0.955725
vt 0.631235 0.955725
vt 0.370560 0.080724
vt 0.413279 0.514458
vt 0.461020 0.457041
vt 0.569898 0.499493
vt 0.569898 0.461147
vt 0.569898 0.422801
vt 0.569898 0.384455
vt 0.685532 0.920666
vt 0.631235 0.920666
vt 0.685532 0.877947
vt 0.631235 0.877947
vt 0.685532 0.829209
vt 0.631235 0.829209
vt 0.685532 0.776325
vt 0.631235 0.776325
vt 0.685532 0.721328
vt 0.631235 0.721328
vt 0.685532 0.666331
vt 0.631235 0.666331
vt 0.685532 0.613447
vt 0.631235 0.613447
vt 0.685532 0.564710
vt 0.631235 0.564710
vt 0.627020 0.764048
vt 0.627020 0.799107
vt 0.572722 0.799107
vt 0.572722 0.764048
vt 0.627020 0.721329
vt 0.572722 0.721329
vt 0.627020 0.672591
vt 0.572722 0.672591
vt 0.627020 0.619707
vt 0.572722 0.619707
vt 0.627020 0.564710
vt 0.572722 0.564710
vt 0.574482 0.001992
vt 0.628779 0.001992
vt 0.628779 0.039345
vt 0.574482 0.039345
vt 0.628779 0.077691
vt 0.574482 0.077691
vt 0.628779 0.116036
vt 0.574482 0.116036
vt 0.628779 0.154381
vt 0.574482 0.154381
vt 0.628779 0.192727
vt 0.574482 0.192727
vt 0.628779 0.231073
vt 0.574482 0.231073
vt 0.628779 0.269419
vt 0.574482 0.269419
vt 0.628779 0.307765
vt 0.574482 0.307765
vt 0.628779 0.346110
vt 0.574482 0.346110
vt 0.628779 0.384455
vt 0.574482 0.384455
vt 0.628779 0.422801
vt 0.574482 0.422801
vt 0.628779 0.461147
vt 0.574482 0.461147
vt 0.628779 0.499493
vt 0.574482 0.499493
vt 0.574482 0.537839
vt 0.628779 0.537839
vt 0.628779 0.561968
vt 0.574482 0.561968
vn 1.000000 0.000000 0.000000
vn 1.000000 0.000000 0.000000
vn 1.000000 0.000000 0.000000
vn 1.000000 0.000000 0.000000
vn 1.000000 0.000000 0.000000
vn 1.000000 0.000000 0.000000
vn 1.000000 0.000000 0.000000
vn 1.000000 0.000000 0.000000
vn 1.000000 0.000000 0.000000
vn 1.000000 0.000000 0.000000
vn 1.000000 0.000000 0.000000
vn 1.000000 0.000000 0.000000
vn 1.000000 0.000000 0.000000
vn 1.000000 0.000000 0.000000
vn 1.000000 0.000000 0.000000
vn 1.000000 0.000000 0.000000
vn 1.000000 0.000000 0.000000
vn 1.000000 0.000000 0.000000
vn 1.000000 0.000000 0.000000
vn 1.000000 0.000000 0.000000
vn -1.000000 0.000000 0.000000
vn -1.000000 0.000000 0.000000
vn -1.000000 0.000000 0.000000
vn -1.000000 0.000000 0.000000
vn -1.000000 0.000000 0.000000
vn -1.000000 0.000000 0.000000
vn -1.000000 0.000000 0.000000
vn -1.000000 0.000000 0.000000
vn -1.000000 0.000000 0.000000
vn -1.000000 0.000000 0.000000
vn -1.000000 0.000000 0.000000
vn -1.000000 0.000000 0.000000
vn -1.000000 0.000000 0.000000
vn -1.000000 0.000000 0.000000
vn -1.000000 0.000000 0.000000
vn -1.000000 0.000000 0.000000
vn -1.000000 0.000000 0.000000
vn -1.000000 0.000000 0.000000
vn -1.000000 0.000000 0.000000
vn -1.000000 0.000000 0.000000
vn -1.000000 0.000000 0.000000
vn -1.000000 0.000000 0.000000
vn -1.000000 0.000000 0.000000
vn -1.000000 0.000000 0.000000
vn 1.000000 0.000000 0.000000
vn 1.000000 0.000000 0.000000
vn 1.000000 0.000000 0.000000
vn 1.000000 0.000000 0.000000
vn 1.000000 0.000000 0.000000
vn 1.000000 0.000000 0.000000
vn 1.000000 0.000000 0.000000
vn 1.000000 0.000000 0.000000
vn -1.000000 0.000000 0.000000
vn -1.000000 0.000000 0.000000
vn -1.000000 0.000000 0.000000
vn -1.000000 0.000000 0.000000
vn -1.000000 0.000000 0.000000
vn -1.000000 0.000000 0.000000
vn -1.000000 0.000000 0.000000
vn -1.000000 0.000000 0.000000
vn 1.000000 0.000000 0.000000
vn 1.000000 0.000000 0.000000
vn 1.000000 0.000000 0.000000
vn 1.000000 0.000000 0.000000
vn 1.000000 0.000000 0.000000
vn 1.000000 0.000000 0.000000
vn 1.000000 0.000000 0.000000
vn 1.000000 0.000000 0.000000
vn -1.000000 0.000000 0.000000
vn -1.000000 0.000000 0.000000
vn -1.000000 0.000000 0.000000
vn -1.000000 0.000000 0.000000
vn 1.000000 0.000000 0.000000
vn 1.000000 0.000000 0.000000
vn 1.000000 0.000000 0.000000
vn 1.000000 0.000000 0.000000
vn 1.000000 0.000000 0.000000
vn 1.000000 0.000000 0.000000
vn 1.000000 0.000000 0.000000
vn 1.000000 0.000000 0.000000
vn 1.000000 0.000000 0.000000
vn 1.000000 0.000000 0.000000
vn 1.000000 0.000000 0.000000
vn 1.000000 0.000000 0.000000
vn 1.000000 0.000000 0.000000
vn 1.000000 0.000000 0.000000
vn 1.000000 0.000000 0.000000
vn 1.000000 0.000000 0.000000
vn -1.000000 0.000000 0.000000
vn -1.000000 0.000000 0.000000
vn -1.000000 0.000000 0.000000
vn -1.000000 0.000000 0.000000
vn 1.000000 0.000000 0.000000
vn 1.000000 0.000000 0.000000
vn 1.000000 0.000000 0.000000
vn 1.000000 0.000000 0.000000
vn -1.000000 0.000000 0.000000
vn -1.000000 0.000000 0.000000
vn -1.000000 0.000000 0.000000
vn -1.000000 0.000000 0.000000
vn 1.000000 0.000000 0.000000
vn 1.000000 0.000000 0.000000
vn 1.000000 0.000000 0.000000
vn 1.000000 0.000000 0.000000
vn 1.000000 0.000000 0.000000
vn 1.000000 0.000000 0.000000
vn 1.000000 0.000000 0.000000
vn 1.000000 0.000000 0.000000
vn 1.000000 0.000000 0.000000
vn 1.000000 0.000000 0.000000
vn 1.000000 0.000000 0.000000
vn 1.000000 0.000000 0.000000
vn 1.000000 0.000000 0.000000
vn 1.000000 0.000000 0.000000
vn 1.000000 0.000000 0.000000
vn 1.000000 0.000000 0.000000
vn 1.000000 0.000000 0.000000
vn 1.000000 0.000000 0.000000
vn 1.000000 0.000000 0.000000
vn 1.000000 0.000000 0.000000
vn 1.000000 0.000000 0.000000
vn 1.000000 0.000000 0.000000
vn 1.000000 0.000000 0.000000
vn 1.000000 0.000000 0.000000
vn 1.000000 0.000000 0.000000
vn 1.000000 0.000000 0.000000
vn 1.000000 0.000000 0.000000
vn 1.000000 0.000000 0.000000
vn 1.000000 0.000000 0.000000
vn 1.000000 0.000000 0.000000
vn 1.000000 0.000000 0.000000
vn 1.000000 0.000000 0.000000
vn 1.000000 0.000000 0.000000
vn 1.000000 0.000000 0.000000
vn 1.000000 0.000000 0.000000
vn 1.000000 0.000000 0.000000
vn 1.000000 0.000000 0.000000
vn 1.000000 0.000000 0.000000
vn 1.000000 0.000000 0.000000
vn 1.000000 0.000000 0.000000
vn 1.000000 0.000000 0.000000
vn 1.000000 0.000000 0.000000
vn 1.000000 0.000000 0.000000
vn 1.000000 0.000000 0.000000
vn 1.000000 0.000000 0.000000
vn 1.000000 0.000000 0.000000
vn 1.000000 0.000000 0.000000
vn 1.000000 0.000000 0.000000
vn 1.000000 0.000000 0.000000
vn 1.000000 0.000000 0.000000
vn 1.000000 0.000000 0.000000
vn 1.000000 0.000000 0.000000
vn -1.000000 0.000000 0.000000
vn -1.000000 0.000000 0.000000
vn -1.000000 0.000000 0.000000
vn -1.000000 0.000000 0.000000
vn -1.000000 0.000000 0.000000
vn -1.000000 0.000000 0.000000
vn -1.000000 0.000000 0.000000
vn -1.000000 0.000000 0.000000
vn 1.000000 0.000000 0.000000
vn 1.000000 0.000000 0.000000
vn 1.000000 0.000000 0.000000
vn 1.000000 0.000000 0.000000
vn 1.000000 0.000000 0.000000
vn 1.000000 0.000000 0.000000
vn 1.000000 0.000000 0.000000
vn 1.000000 0.000000 0.000000
vn -1.000000 0.000000 0.000000
vn -1.000000 0.000000 0.000000
vn -1.000000 0.000000 0.000000
vn -1.000000 0.000000 0.000000
vn -1.000000 0.000000 0.000000
vn -1.000000 0.000000 0.000000
vn -1.000000 0.000000 0.000000
vn -1.000000 0.000000 0.000000
vn -1.000000 0.000000 0.000000
vn -1.000000 0.000000 0.000000
vn -1.000000 0.000000 0.000000
vn -1.000000 0.000000 0.000000
vn 0.000000 -0.792657 -0.609667
vn 0.000000 -0.792657 -0.609667
vn 0.000000 -0.792657 -0.609667
vn 0.000000 -0.792657 -0.609667
vn -1.000000 0.000000 0.000000
vn -1.000000 0.000000 0.000000
vn -1.000000 0.000000 0.000000
vn -1.000000 0.000000 0.000000
vn -1.000000 0.000000 0.000000
vn -1.000000 0.000000 0.000000
vn -1.000000 0.000000 0.000000
vn -1.000000 0.000000 0.000000
vn -1.000000 0.000000 0.000000
vn -1.000000 0.000000 0.000000
vn -1.000000 0.000000 0.000000
vn -1.000000 0.000000 0.000000
vn -1.000000 0.000000 0.000000
vn -1.000000 0.000000 0.000000
vn -1.000000 0.000000 0.000000
vn -1.000000 0.000000 0.000000
vn 0.000000 -0.804608 -0.593806
vn 0.000000 -0.804608 -0.593806
vn 0.000000 -0.804608 -0.593806
vn 0.000000 -0.804608 -0.593806
vn -1.000000 0.000000 0.000000
vn -1.000000 0.000000 0.000000
vn -1.000000 0.000000 0.000000
vn -1.000000 0.000000 0.000000
vn -1.000000 0.000000 0.000000
vn -1.000000 0.000000 0.000000
vn -1.000000 0.000000 0.000000
vn -1.000000 0.000000 0.000000
vn -1.000000 0.000000 0.000000
vn -1.000000 0.000000 0.000000
vn -1.000000 0.000000 0.000000
vn -1.000000 0.000000 0.000000
vn -1.000000 0.000000 0.000000
vn -1.000000 0.000000 0.000000
vn -1.000000 0.000000 0.000000
vn -1.000000 0.000000 0.000000
vn -1.000000 0.000000 0.000000
vn -1.000000 0.000000 0.000000
vn -1.000000 0.000000 0.000000
vn -1.000000 0.000000 0.000000
vn -1.000000 0.000000 0.000000
vn -1.000000 0.000000 0.000000
vn -1.000000 0.000000 0.000000
vn -1.000000 0.000000 0.000000
vn -1.000000 0.000000 0.000000
vn -1.000000 0.000000 0.000000
vn -1.000000 0.000000 0.000000
vn -1.000000 0.000000 0.000000
vn -1.000000 0.000000 0.000000
vn -1.000000 0.000000 0.000000
vn -1.000000 0.000000 0.000000
vn -1.000000 0.000000 0.000000
vn -1.000000 0.000000 0.000000
vn -1.000000 0.000000 0.000000
vn -1.000000 0.000000 0.000000
vn -1.000000 0.000000 0.000000
vn 0.000000 -0.773003 -0.634402
vn 0.000000 -0.773003 -0.634402
vn 0.000000 -0.773003 -0.634402
vn 0.000000 -0.773003 -0.634402
vn 0.000000 -0.634402 -0.773003
vn 0.000000 -0.634402 -0.773003
vn 0.000000 -0.634402 -0.773003
vn 0.000000 -0.634402 -0.773003
vn 0.000000 -0.471408 -0.881915
vn 0.000000 -0.471408 -0.881915
vn 0.000000 -0.471408 -0.881915
vn 0.000000 -0.471408 -0.881915
vn 0.000000 -0.290310 -0.956933
vn 0.000000 -0.290310 -0.956933
vn 0.000000 -0.290310 -0.956933
vn 0.000000 -0.290310 -0.956933
vn 0.000000 -0.097999 -0.995187
vn 0.000000 -0.097999 -0.995187
vn 0.000000 -0.097999 -0.995187
vn 0.000000 -0.097999 -0.995187
vn 0.000000 0.097999 -0.995187
vn 0.000000 0.097999 -0.995187
vn 0.000000 0.097999 -0.995187
vn 0.000000 0.097999 -0.995187
vn 0.000000 0.290310 -0.956933
vn 0.000000 0.290310 -0.956933
vn 0.000000 0.290310 -0.956933
vn 0.000000 0.290310 -0.956933
vn 0.000000 0.471408 -0.881915
vn 0.000000 0.471408 -0.881915
vn 0.000000 0.471408 -0.881915
vn 0.000000 0.471408 -0.881915
vn 0.000000 0.634402 -0.773003
vn 0.000000 0.634402 -0.773003
vn 0.000000 0.634402 -0.773003
vn 0.000000 0.634402 -0.773003
vn 0.000000 0.773003 -0.634402
vn 0.000000 0.773003 -0.634402
vn 0.000000 0.773003 -0.634402
vn 0.000000 0.773003 -0.634402
vn 0.000000 0.881915 -0.471408
vn 0.000000 0.881915 -0.471408
vn 0.000000 0.881915 -0.471408
vn 0.000000 0.881915 -0.471408
vn 0.000000 0.956933 -0.290310
vn 0.000000 0.956933 -0.290310
vn 0.000000 0.956933 -0.290310
vn 0.000000 0.956933 -0.290310
vn 0.000000 0.995187 -0.097999
vn 0.000000 0.995187 -0.097999
vn 0.000000 0.995187 -0.097999
vn 0.000000 0.995187 -0.097999
vn 0.000000 0.000000 1.000000
vn 0.000000 0.000000 1.000000
vn 0.000000 0.000000 1.000000
vn 0.000000 0.000000 1.000000
vn 0.000000 0.000000 1.000000
vn 0.000000 0.000000 1.000000
vn 0.000000 0.000000 1.000000
vn 0.000000 0.000000 1.000000
vn 0.000000 0.000000 1.000000
vn 0.000000 0.000000 1.000000
vn 0.000000 0.000000 1.000000
vn 0.000000 0.000000 1.000000
vn 0.000000 0.000000 1.000000
vn 0.000000 0.000000 1.000000
vn 0.000000 0.000000 1.000000
vn 0.000000 0.000000 1.000000
vn 0.000000 0.000000 1.000000
vn 0.000000 0.000000 1.000000
vn 0.000000 0.000000 1.000000
vn 0.000000 0.000000 1.000000
vn 0.000000 0.000000 1.000000
vn 0.000000 0.000000 1.000000
vn 0.000000 0.000000 1.000000
vn 0.000000 0.000000 1.000000
vn 0.000000 0.000000 1.000000
vn 0.000000 0.000000 1.000000
vn 0.000000 0.000000 1.000000
vn 0.000000 0.000000 1.000000
vn 0.000000 0.000000 1.000000
vn 0.000000 0.000000 1.000000
vn 0.000000 0.000000 1.000000
vn 0.000000 0.000000 1.000000
vn 0.000000 0.000000 1.000000
vn 0.000000 0.000000 1.000000
vn 0.000000 0.000000 1.000000
vn 0.000000 0.000000 1.000000
vn 0.000000 0.000000 1.000000
vn 0.000000 0.000000 1.000000
vn 0.000000 0.000000 1.000000
vn 0.000000 0.000000 1.000000
vn 0.000000 0.000000 1.000000
vn 0.000000 0.000000 1.000000
vn 0.000000 0.000000 1.000000
vn 0.000000 0.000000 1.000000
vn 0.000000 0.000000 1.000000
vn 0.000000 0.000000 1.000000
vn 0.000000 0.000000 1.000000
vn 0.000000 0.000000 1.000000
vn 0.000000 0.000000 1.000000
vn 0.000000 0.000000 1.000000
vn 0.000000 0.000000 1.000000
vn 0.000000 0.000000 1.000000
vn 0.000000 0.000000 1.000000
vn 0.000000 0.000000 1.000000
vn 0.000000 0.000000 1.000000
vn 0.000000 0.000000 1.000000
vn 0.000000 0.000000 1.000000
vn 0.000000 0.000000 1.000000
vn 0.000000 0.000000 1.000000
vn 0.000000 0.000000 1.000000
s off
g DoorR3:DoorR2
usemtl initialShadingGroup
f 70/1/1 69/2/2 50/3/3 48/4/4
f 71/5/5 70/1/6 48/4/7 46/6/8
f 72/7/9 71/5/10 46/6/11 61/8/12
f 73/9/13 72/7/14 61/8/15 60/10/16
f 3/11/17 73/9/18 60/10/19 43/12/20
f 37/13/21 39/14/22 5/15/23 1/16/24
f 39/14/25 41/17/26 7/18/27 5/15/28
f 29/19/29 53/20/30 51/21/31 31/22/32
f 27/23/33 54/24/34 53/20/35 29/19/36
f 25/25/37 57/26/38 54/24/39 27/23/40
f 23/27/41 58/28/42 57/26/43 25/25/44
f 18/29/45 60/10/46 61/8/47 20/30/48
f 10/31/49 36/32/50 38/33/51 12/34/52
f 21/35/53 74/36/54 58/28/55 23/27/56
f 19/37/57 42/38/58 74/36/59 21/35/60
f 20/30/61 61/8/62 46/6/63 22/39/64
f 12/34/65 38/33/66 40/40/67 14/41/68
f 17/42/69 44/43/70 42/38/71 19/37/72
f 22/39/73 46/6/74 48/4/75 24/44/76
f 24/44/77 48/4/78 50/3/79 26/45/80
f 26/45/81 50/3/82 52/46/83 28/47/84
f 28/47/85 52/46/86 30/48/87 4/49/88
f 51/21/89 82/50/90 41/17/91 39/14/92
f 4/49/93 30/48/94 32/51/95 6/52/96
f 31/22/97 51/21/98 39/14/99 37/13/100
f 2/53/101 3/11/102 43/12/103 16/54/104
f 6/52/105 32/51/106 34/55/107 8/56/108
f 16/54/109 43/12/110 60/10/111 18/29/112
f 8/56/113 34/55/114 36/32/115 10/31/116
f 62/57/117 59/58/118 56/59/119 40/40/120
f 40/40/121 56/59/122 55/60/123 14/41/124
f 69/2/125 68/61/126 52/46/127 50/3/128
f 68/61/129 67/62/130 30/48/131 52/46/132
f 67/62/133 66/63/134 32/51/135 30/48/136
f 66/63/137 65/64/138 34/55/139 32/51/140
f 65/64/141 64/65/142 36/32/143 34/55/144
f 64/65/145 63/66/146 38/33/147 36/32/148
f 63/66/149 62/57/150 40/40/151 38/33/152
f 85/67/153 84/68/154 54/24/155 57/26/156
f 81/69/157 80/70/158 35/71/159 49/72/160
f 56/59/161 89/73/162 88/74/163 55/60/164
f 59/58/165 92/75/166 89/73/167 56/59/168
f 86/76/169 85/67/170 57/26/171 58/28/172
f 91/77/173 81/69/174 49/72/175 90/78/176
f 87/79/177 86/76/178 58/28/179 74/36/180
f 55/80/181 88/81/182 7/82/183 41/83/184
f 75/84/185 87/79/186 74/36/187 42/38/188
f 76/85/189 75/84/190 42/38/191 44/43/192
f 77/86/193 76/85/194 44/43/195 45/87/196
f 78/88/197 77/86/198 45/87/199 47/89/200
f 14/90/201 55/80/202 41/83/203 82/91/204
f 83/92/205 82/50/206 51/21/207 53/20/208
f 79/93/209 78/88/210 47/89/211 33/94/212
f 84/68/213 83/92/214 53/20/215 54/24/216
f 80/70/217 79/93/218 33/94/219 35/71/220
f 90/78/221 49/72/222 35/71/223 9/95/224
f 9/95/225 35/71/226 33/94/227 11/96/228
f 11/96/229 33/94/230 47/89/231 13/97/232
f 13/97/233 47/89/234 45/87/235 15/98/236
f 15/98/237 45/87/238 44/43/239 17/42/240
f 12/99/241 14/90/242 82/91/243 83/100/244
f 10/101/245 12/99/246 83/100/247 84/102/248
f 8/103/249 10/101/250 84/102/251 85/104/252
f 6/105/253 8/103/254 85/104/255 86/106/256
f 4/107/257 6/105/258 86/106/259 87/108/260
f 28/109/261 4/107/262 87/108/263 75/110/264
f 26/111/265 28/109/266 75/110/267 76/112/268
f 24/113/269 26/111/270 76/112/271 77/114/272
f 22/115/273 24/116/274 77/117/275 78/118/276
f 20/119/277 22/115/278 78/118/279 79/120/280
f 18/121/281 20/119/282 79/120/283 80/122/284
f 16/123/285 18/121/286 80/122/287 81/124/288
f 2/125/289 16/123/290 81/124/291 91/126/292
f 1/127/293 92/128/294 59/129/295 37/130/296
f 62/131/297 31/132/298 37/130/299 59/129/300
f 63/133/301 29/134/302 31/132/303 62/131/304
f 64/135/305 27/136/306 29/134/307 63/133/308
f 65/137/309 25/138/310 27/136/311 64/135/312
f 66/139/313 23/140/314 25/138/315 65/137/316
f 67/141/317 21/142/318 23/140/319 66/139/320
f 68/143/321 19/144/322 21/142/323 67/141/324
f 69/145/325 17/146/326 19/144/327 68/143/328
f 70/147/329 15/148/330 17/146/331 69/145/332
f 71/149/333 13/150/334 15/148/335 70/147/336
f 72/151/337 11/152/338 13/150/339 71/149/340
f 73/153/341 9/154/342 11/152/343 72/151/344
f 90/155/345 9/154/346 73/153/347 3/156/348
f 2/157/349 91/158/350 90/155/351 3/156/352
