# This file uses centimeters as units for non-parametric coordinates.

mtllib DoorL3.mtl
g default
v 7.383776 -0.055911 0.009640
v 7.733532 3.551140 0.009640
v 7.733532 3.395711 0.009640
v 7.733532 1.735253 1.825521
v 7.383776 -0.055911 0.327008
v 7.733532 1.380995 1.790632
v 7.383776 -0.046961 0.662634
v 7.733532 1.040344 1.687296
v 7.383776 3.148709 0.009640
v 7.733532 0.726405 1.519489
v 7.383776 2.901707 0.009640
v 7.733532 0.451233 1.293665
v 7.383776 2.654705 0.009640
v 7.733532 0.225404 1.018488
v 7.383776 2.407702 0.009640
v 7.733532 3.516245 0.363903
v 7.383776 2.160700 0.009640
v 7.733532 3.412908 0.704548
v 7.383776 1.913704 0.009640
v 7.733532 3.245107 1.018494
v 7.383776 1.666702 0.009640
v 7.733532 3.019278 1.293665
v 7.383776 1.419700 0.009640
v 7.733532 2.744101 1.519494
v 7.383776 1.172697 0.009640
v 7.733532 2.430161 1.687296
v 7.383776 0.925695 0.009640
v 7.733532 2.089516 1.790632
v 7.383776 0.678699 0.009640
v 7.733532 1.652277 1.051418
v 7.383776 0.431697 0.009640
v 7.733532 1.407678 1.007601
v 7.383776 2.875255 0.710974
v 7.733532 1.163079 0.936152
v 7.383776 3.119854 0.557263
v 7.733532 0.918486 0.837270
v 7.383776 0.184694 0.009640
v 7.733532 0.673887 0.710974
v 7.383776 0.184694 0.327008
v 7.733532 0.429293 0.557263
v 7.383776 0.193644 0.975461
v 7.383776 1.896870 1.051418
v 7.733532 3.364453 0.327008
v 7.383776 2.141469 1.007601
v 7.383776 2.386063 0.936152
v 7.733532 2.630661 0.837270
v 7.383776 2.630661 0.837270
v 7.733532 2.386063 0.936152
v 7.383776 3.364447 0.327008
v 7.733532 2.141469 1.007601
v 7.383776 0.429293 0.557263
v 7.733532 1.896870 1.051418
v 7.383776 0.673887 0.710974
v 7.383776 0.918486 0.837270
v 7.733532 0.193644 0.975461
v 7.733532 0.184694 0.327008
v 7.383776 1.163079 0.936152
v 7.383776 1.407678 1.007601
v 7.733532 0.184694 0.009640
v 7.733532 3.119854 0.557263
v 7.733532 2.875255 0.710974
v 7.733532 0.431697 0.009640
v 7.733532 0.678699 0.009640
v 7.733532 0.925695 0.009640
v 7.733532 1.172697 0.009640
v 7.733532 1.419700 0.009640
v 7.733532 1.666702 0.009640
v 7.733532 1.913704 0.009640
v 7.733532 2.160706 0.009640
v 7.733532 2.407702 0.009640
v 7.733532 2.654705 0.009640
v 7.733532 2.901707 0.009640
v 7.733532 3.148709 0.009640
v 7.383776 1.652277 1.051418
v 7.383776 2.089516 1.790632
v 7.383776 2.430161 1.687296
v 7.383776 2.744101 1.519494
v 7.383776 3.019278 1.293665
v 7.383776 3.245107 1.018494
v 7.383776 3.412908 0.704548
v 7.383776 3.516245 0.363903
v 7.383776 0.225404 1.018488
v 7.383776 0.451233 1.293665
v 7.383776 0.726405 1.519489
v 7.383776 1.040344 1.687296
v 7.383776 1.380995 1.790632
v 7.383776 1.735253 1.825521
v 7.733532 -0.046961 0.662634
v 7.733532 -0.055911 0.327008
v 7.383776 3.395711 0.009640
v 7.383776 3.551140 0.009640
v 7.733532 -0.055911 0.009640
vn 1.000000 0.000000 0.000000
vn 1.000000 0.000000 0.000000
vn 1.000000 0.000000 0.000000
vn 1.000000 0.000000 0.000000
vn 1.000000 0.000000 0.000000
vn 1.000000 0.000000 0.000000
vn 1.000000 0.000000 0.000000
vn 1.000000 0.000000 0.000000
vn 1.000000 0.000000 0.000000
vn 1.000000 0.000000 0.000000
vn 1.000000 0.000000 0.000000
vn 1.000000 0.000000 0.000000
vn 1.000000 0.000000 0.000000
vn 1.000000 0.000000 0.000000
vn 1.000000 0.000000 0.000000
vn 1.000000 0.000000 0.000000
vn 1.000000 0.000000 0.000000
vn 1.000000 0.000000 0.000000
vn 1.000000 0.000000 0.000000
vn 1.000000 0.000000 0.000000
vn -1.000000 0.000000 0.000000
vn -1.000000 0.000000 0.000000
vn -1.000000 0.000000 0.000000
vn -1.000000 0.000000 0.000000
vn -1.000000 0.000000 0.000000
vn -1.000000 0.000000 0.000000
vn -1.000000 0.000000 0.000000
vn -1.000000 0.000000 0.000000
vn -1.000000 0.000000 0.000000
vn -1.000000 0.000000 0.000000
vn -1.000000 0.000000 0.000000
vn -1.000000 0.000000 0.000000
vn -1.000000 0.000000 0.000000
vn -1.000000 0.000000 0.000000
vn -1.000000 0.000000 0.000000
vn -1.000000 0.000000 0.000000
vn -1.000000 0.000000 0.000000
vn -1.000000 0.000000 0.000000
vn -1.000000 0.000000 0.000000
vn -1.000000 0.000000 0.000000
vn -1.000000 0.000000 0.000000
vn -1.000000 0.000000 0.000000
vn -1.000000 0.000000 0.000000
vn -1.000000 0.000000 0.000000
vn 1.000000 0.000000 0.000000
vn 1.000000 0.000000 0.000000
vn 1.000000 0.000000 0.000000
vn 1.000000 0.000000 0.000000
vn 1.000000 0.000000 0.000000
vn 1.000000 0.000000 0.000000
vn 1.000000 0.000000 0.000000
vn 1.000000 0.000000 0.000000
vn -1.000000 0.000000 0.000000
vn -1.000000 0.000000 0.000000
vn -1.000000 0.000000 0.000000
vn -1.000000 0.000000 0.000000
vn -1.000000 0.000000 0.000000
vn -1.000000 0.000000 0.000000
vn -1.000000 0.000000 0.000000
vn -1.000000 0.000000 0.000000
vn 1.000000 0.000000 0.000000
vn 1.000000 0.000000 0.000000
vn 1.000000 0.000000 0.000000
vn 1.000000 0.000000 0.000000
vn 1.000000 0.000000 0.000000
vn 1.000000 0.000000 0.000000
vn 1.000000 0.000000 0.000000
vn 1.000000 0.000000 0.000000
vn -1.000000 0.000000 0.000000
vn -1.000000 0.000000 0.000000
vn -1.000000 0.000000 0.000000
vn -1.000000 0.000000 0.000000
vn 1.000000 0.000000 0.000000
vn 1.000000 0.000000 0.000000
vn 1.000000 0.000000 0.000000
vn 1.000000 0.000000 0.000000
vn 1.000000 0.000000 0.000000
vn 1.000000 0.000000 0.000000
vn 1.000000 0.000000 0.000000
vn 1.000000 0.000000 0.000000
vn 1.000000 0.000000 0.000000
vn 1.000000 0.000000 0.000000
vn 1.000000 0.000000 0.000000
vn 1.000000 0.000000 0.000000
vn 1.000000 0.000000 0.000000
vn 1.000000 0.000000 0.000000
vn 1.000000 0.000000 0.000000
vn 1.000000 0.000000 0.000000
vn -1.000000 0.000000 0.000000
vn -1.000000 0.000000 0.000000
vn -1.000000 0.000000 0.000000
vn -1.000000 0.000000 0.000000
vn 1.000000 0.000000 0.000000
vn 1.000000 0.000000 0.000000
vn 1.000000 0.000000 0.000000
vn 1.000000 0.000000 0.000000
vn -1.000000 0.000000 0.000000
vn -1.000000 0.000000 0.000000
vn -1.000000 0.000000 0.000000
vn -1.000000 0.000000 0.000000
vn 1.000000 0.000000 0.000000
vn 1.000000 0.000000 0.000000
vn 1.000000 0.000000 0.000000
vn 1.000000 0.000000 0.000000
vn 1.000000 0.000000 0.000000
vn 1.000000 0.000000 0.000000
vn 1.000000 0.000000 0.000000
vn 1.000000 0.000000 0.000000
vn 1.000000 0.000000 0.000000
vn 1.000000 0.000000 0.000000
vn 1.000000 0.000000 0.000000
vn 1.000000 0.000000 0.000000
vn 1.000000 0.000000 0.000000
vn 1.000000 0.000000 0.000000
vn 1.000000 0.000000 0.000000
vn 1.000000 0.000000 0.000000
vn 1.000000 0.000000 0.000000
vn 1.000000 0.000000 0.000000
vn 1.000000 0.000000 0.000000
vn 1.000000 0.000000 0.000000
vn 1.000000 0.000000 0.000000
vn 1.000000 0.000000 0.000000
vn 1.000000 0.000000 0.000000
vn 1.000000 0.000000 0.000000
vn 1.000000 0.000000 0.000000
vn 1.000000 0.000000 0.000000
vn 1.000000 0.000000 0.000000
vn 1.000000 0.000000 0.000000
vn 1.000000 0.000000 0.000000
vn 1.000000 0.000000 0.000000
vn 1.000000 0.000000 0.000000
vn 1.000000 0.000000 0.000000
vn 1.000000 0.000000 0.000000
vn 1.000000 0.000000 0.000000
vn 1.000000 0.000000 0.000000
vn 1.000000 0.000000 0.000000
vn 1.000000 0.000000 0.000000
vn 1.000000 0.000000 0.000000
vn 1.000000 0.000000 0.000000
vn 1.000000 0.000000 0.000000
vn 1.000000 0.000000 0.000000
vn 1.000000 0.000000 0.000000
vn 1.000000 0.000000 0.000000
vn 1.000000 0.000000 0.000000
vn 1.000000 0.000000 0.000000
vn 1.000000 0.000000 0.000000
vn 1.000000 0.000000 0.000000
vn 1.000000 0.000000 0.000000
vn 1.000000 0.000000 0.000000
vn 1.000000 0.000000 0.000000
vn 1.000000 0.000000 0.000000
vn 1.000000 0.000000 0.000000
vn -1.000000 0.000000 0.000000
vn -1.000000 0.000000 0.000000
vn -1.000000 0.000000 0.000000
vn -1.000000 0.000000 0.000000
vn -1.000000 0.000000 0.000000
vn -1.000000 0.000000 0.000000
vn -1.000000 0.000000 0.000000
vn -1.000000 0.000000 0.000000
vn 1.000000 0.000000 0.000000
vn 1.000000 0.000000 0.000000
vn 1.000000 0.000000 0.000000
vn 1.000000 0.000000 0.000000
vn 1.000000 0.000000 0.000000
vn 1.000000 0.000000 0.000000
vn 1.000000 0.000000 0.000000
vn 1.000000 0.000000 0.000000
vn -1.000000 0.000000 0.000000
vn -1.000000 0.000000 0.000000
vn -1.000000 0.000000 0.000000
vn -1.000000 0.000000 0.000000
vn -1.000000 0.000000 0.000000
vn -1.000000 0.000000 0.000000
vn -1.000000 0.000000 0.000000
vn -1.000000 0.000000 0.000000
vn -1.000000 0.000000 0.000000
vn -1.000000 0.000000 0.000000
vn -1.000000 0.000000 0.000000
vn -1.000000 0.000000 0.000000
vn 0.000000 -0.792657 0.609667
vn 0.000000 -0.792657 0.609667
vn 0.000000 -0.792657 0.609667
vn 0.000000 -0.792657 0.609667
vn -1.000000 0.000000 0.000000
vn -1.000000 0.000000 0.000000
vn -1.000000 0.000000 0.000000
vn -1.000000 0.000000 0.000000
vn -1.000000 0.000000 0.000000
vn -1.000000 0.000000 0.000000
vn -1.000000 0.000000 0.000000
vn -1.000000 0.000000 0.000000
vn -1.000000 0.000000 0.000000
vn -1.000000 0.000000 0.000000
vn -1.000000 0.000000 0.000000
vn -1.000000 0.000000 0.000000
vn -1.000000 0.000000 0.000000
vn -1.000000 0.000000 0.000000
vn -1.000000 0.000000 0.000000
vn -1.000000 0.000000 0.000000
vn 0.000000 -0.804608 0.593806
vn 0.000000 -0.804608 0.593806
vn 0.000000 -0.804608 0.593806
vn 0.000000 -0.804608 0.593806
vn -1.000000 0.000000 0.000000
vn -1.000000 0.000000 0.000000
vn -1.000000 0.000000 0.000000
vn -1.000000 0.000000 0.000000
vn -1.000000 0.000000 0.000000
vn -1.000000 0.000000 0.000000
vn -1.000000 0.000000 0.000000
vn -1.000000 0.000000 0.000000
vn -1.000000 0.000000 0.000000
vn -1.000000 0.000000 0.000000
vn -1.000000 0.000000 0.000000
vn -1.000000 0.000000 0.000000
vn -1.000000 0.000000 0.000000
vn -1.000000 0.000000 0.000000
vn -1.000000 0.000000 0.000000
vn -1.000000 0.000000 0.000000
vn -1.000000 0.000000 0.000000
vn -1.000000 0.000000 0.000000
vn -1.000000 0.000000 0.000000
vn -1.000000 0.000000 0.000000
vn -1.000000 0.000000 0.000000
vn -1.000000 0.000000 0.000000
vn -1.000000 0.000000 0.000000
vn -1.000000 0.000000 0.000000
vn -1.000000 0.000000 0.000000
vn -1.000000 0.000000 0.000000
vn -1.000000 0.000000 0.000000
vn -1.000000 0.000000 0.000000
vn -1.000000 0.000000 0.000000
vn -1.000000 0.000000 0.000000
vn -1.000000 0.000000 0.000000
vn -1.000000 0.000000 0.000000
vn -1.000000 0.000000 0.000000
vn -1.000000 0.000000 0.000000
vn -1.000000 0.000000 0.000000
vn -1.000000 0.000000 0.000000
vn 0.000000 -0.773003 0.634402
vn 0.000000 -0.773003 0.634402
vn 0.000000 -0.773003 0.634402
vn 0.000000 -0.773003 0.634402
vn 0.000000 -0.634402 0.773003
vn 0.000000 -0.634402 0.773003
vn 0.000000 -0.634402 0.773003
vn 0.000000 -0.634402 0.773003
vn 0.000000 -0.471408 0.881915
vn 0.000000 -0.471408 0.881915
vn 0.000000 -0.471408 0.881915
vn 0.000000 -0.471408 0.881915
vn 0.000000 -0.290310 0.956933
vn 0.000000 -0.290310 0.956933
vn 0.000000 -0.290310 0.956933
vn 0.000000 -0.290310 0.956933
vn 0.000000 -0.097999 0.995187
vn 0.000000 -0.097999 0.995187
vn 0.000000 -0.097999 0.995187
vn 0.000000 -0.097999 0.995187
vn 0.000000 0.097999 0.995187
vn 0.000000 0.097999 0.995187
vn 0.000000 0.097999 0.995187
vn 0.000000 0.097999 0.995187
vn 0.000000 0.290310 0.956933
vn 0.000000 0.290310 0.956933
vn 0.000000 0.290310 0.956933
vn 0.000000 0.290310 0.956933
vn 0.000000 0.471408 0.881915
vn 0.000000 0.471408 0.881915
vn 0.000000 0.471408 0.881915
vn 0.000000 0.471408 0.881915
vn 0.000000 0.634402 0.773003
vn 0.000000 0.634402 0.773003
vn 0.000000 0.634402 0.773003
vn 0.000000 0.634402 0.773003
vn 0.000000 0.773003 0.634402
vn 0.000000 0.773003 0.634402
vn 0.000000 0.773003 0.634402
vn 0.000000 0.773003 0.634402
vn 0.000000 0.881915 0.471408
vn 0.000000 0.881915 0.471408
vn 0.000000 0.881915 0.471408
vn 0.000000 0.881915 0.471408
vn 0.000000 0.956933 0.290310
vn 0.000000 0.956933 0.290310
vn 0.000000 0.956933 0.290310
vn 0.000000 0.956933 0.290310
vn 0.000000 0.995187 0.097999
vn 0.000000 0.995187 0.097999
vn 0.000000 0.995187 0.097999
vn 0.000000 0.995187 0.097999
vn 0.000000 0.000000 -1.000000
vn 0.000000 0.000000 -1.000000
vn 0.000000 0.000000 -1.000000
vn 0.000000 0.000000 -1.000000
vn 0.000000 0.000000 -1.000000
vn 0.000000 0.000000 -1.000000
vn 0.000000 0.000000 -1.000000
vn 0.000000 0.000000 -1.000000
vn 0.000000 0.000000 -1.000000
vn 0.000000 0.000000 -1.000000
vn 0.000000 0.000000 -1.000000
vn 0.000000 0.000000 -1.000000
vn 0.000000 0.000000 -1.000000
vn 0.000000 0.000000 -1.000000
vn 0.000000 0.000000 -1.000000
vn 0.000000 0.000000 -1.000000
vn 0.000000 0.000000 -1.000000
vn 0.000000 0.000000 -1.000000
vn 0.000000 0.000000 -1.000000
vn 0.000000 0.000000 -1.000000
vn 0.000000 0.000000 -1.000000
vn 0.000000 0.000000 -1.000000
vn 0.000000 0.000000 -1.000000
vn 0.000000 0.000000 -1.000000
vn 0.000000 0.000000 -1.000000
vn 0.000000 0.000000 -1.000000
vn 0.000000 0.000000 -1.000000
vn 0.000000 0.000000 -1.000000
vn 0.000000 0.000000 -1.000000
vn 0.000000 0.000000 -1.000000
vn 0.000000 0.000000 -1.000000
vn 0.000000 0.000000 -1.000000
vn 0.000000 0.000000 -1.000000
vn 0.000000 0.000000 -1.000000
vn 0.000000 0.000000 -1.000000
vn 0.000000 0.000000 -1.000000
vn 0.000000 0.000000 -1.000000
vn 0.000000 0.000000 -1.000000
vn 0.000000 0.000000 -1.000000
vn 0.000000 0.000000 -1.000000
vn 0.000000 0.000000 -1.000000
vn 0.000000 0.000000 -1.000000
vn 0.000000 0.000000 -1.000000
vn 0.000000 0.000000 -1.000000
vn 0.000000 0.000000 -1.000000
vn 0.000000 0.000000 -1.000000
vn 0.000000 0.000000 -1.000000
vn 0.000000 0.000000 -1.000000
vn 0.000000 0.000000 -1.000000
vn 0.000000 0.000000 -1.000000
vn 0.000000 0.000000 -1.000000
vn 0.000000 0.000000 -1.000000
vn 0.000000 0.000000 -1.000000
vn 0.000000 0.000000 -1.000000
vn 0.000000 0.000000 -1.000000
vn 0.000000 0.000000 -1.000000
vn 0.000000 0.000000 -1.000000
vn 0.000000 0.000000 -1.000000
vn 0.000000 0.000000 -1.000000
vn 0.000000 0.000000 -1.000000
s off
g DoorL3
usemtl initialShadingGroup
f 70//1 48//2 50//3 69//4
f 71//5 46//6 48//7 70//8
f 72//9 61//10 46//11 71//12
f 73//13 60//14 61//15 72//16
f 3//17 43//18 60//19 73//20
f 37//21 1//22 5//23 39//24
f 39//25 5//26 7//27 41//28
f 29//29 31//30 51//31 53//32
f 27//33 29//34 53//35 54//36
f 25//37 27//38 54//39 57//40
f 23//41 25//42 57//43 58//44
f 18//45 20//46 61//47 60//48
f 10//49 12//50 38//51 36//52
f 21//53 23//54 58//55 74//56
f 19//57 21//58 74//59 42//60
f 20//61 22//62 46//63 61//64
f 12//65 14//66 40//67 38//68
f 17//69 19//70 42//71 44//72
f 22//73 24//74 48//75 46//76
f 24//77 26//78 50//79 48//80
f 26//81 28//82 52//83 50//84
f 28//85 4//86 30//87 52//88
f 51//89 39//90 41//91 82//92
f 4//93 6//94 32//95 30//96
f 31//97 37//98 39//99 51//100
f 2//101 16//102 43//103 3//104
f 6//105 8//106 34//107 32//108
f 16//109 18//110 60//111 43//112
f 8//113 10//114 36//115 34//116
f 62//117 40//118 56//119 59//120
f 40//121 14//122 55//123 56//124
f 69//125 50//126 52//127 68//128
f 68//129 52//130 30//131 67//132
f 67//133 30//134 32//135 66//136
f 66//137 32//138 34//139 65//140
f 65//141 34//142 36//143 64//144
f 64//145 36//146 38//147 63//148
f 63//149 38//150 40//151 62//152
f 85//153 57//154 54//155 84//156
f 81//157 49//158 35//159 80//160
f 56//161 55//162 88//163 89//164
f 59//165 56//166 89//167 92//168
f 86//169 58//170 57//171 85//172
f 91//173 90//174 49//175 81//176
f 87//177 74//178 58//179 86//180
f 55//181 41//182 7//183 88//184
f 75//185 42//186 74//187 87//188
f 76//189 44//190 42//191 75//192
f 77//193 45//194 44//195 76//196
f 78//197 47//198 45//199 77//200
f 14//201 82//202 41//203 55//204
f 83//205 53//206 51//207 82//208
f 79//209 33//210 47//211 78//212
f 84//213 54//214 53//215 83//216
f 80//217 35//218 33//219 79//220
f 90//221 9//222 35//223 49//224
f 9//225 11//226 33//227 35//228
f 11//229 13//230 47//231 33//232
f 13//233 15//234 45//235 47//236
f 15//237 17//238 44//239 45//240
f 12//241 83//242 82//243 14//244
f 10//245 84//246 83//247 12//248
f 8//249 85//250 84//251 10//252
f 6//253 86//254 85//255 8//256
f 4//257 87//258 86//259 6//260
f 28//261 75//262 87//263 4//264
f 26//265 76//266 75//267 28//268
f 24//269 77//270 76//271 26//272
f 22//273 78//274 77//275 24//276
f 20//277 79//278 78//279 22//280
f 18//281 80//282 79//283 20//284
f 16//285 81//286 80//287 18//288
f 2//289 91//290 81//291 16//292
f 1//293 37//294 59//295 92//296
f 62//297 59//298 37//299 31//300
f 63//301 62//302 31//303 29//304
f 64//305 63//306 29//307 27//308
f 65//309 64//310 27//311 25//312
f 66//313 65//314 25//315 23//316
f 67//317 66//318 23//319 21//320
f 68//321 67//322 21//323 19//324
f 69//325 68//326 19//327 17//328
f 70//329 69//330 17//331 15//332
f 71//333 70//334 15//335 13//336
f 72//337 71//338 13//339 11//340
f 73//341 72//342 11//343 9//344
f 90//345 3//346 73//347 9//348
f 2//349 3//350 90//351 91//352
