# This file uses centimeters as units for non-parametric coordinates.

mtllib box.mtl
g default
v 0.395830 0.031452 -0.350295
v 0.395830 0.137299 -0.350295
v 0.395581 0.137201 -0.244545
v 0.395579 0.031452 -0.244527
v 0.290122 0.031452 -0.350542
v 0.290079 0.137201 -0.350543
v 0.289831 0.031452 -0.244793
v 0.290079 0.664295 -0.350543
v 0.395829 0.664196 -0.350292
v 0.394341 0.137201 0.282549
v 0.394341 0.031452 0.282528
v 0.288592 0.031452 0.282299
v -0.237263 0.031452 -0.246034
v -0.237055 0.031452 -0.351783
v 0.395829 0.770042 -0.350292
v 0.395579 0.770042 -0.244527
v 0.395581 0.664295 -0.244545
v 0.290122 0.770042 -0.350542
v 0.289831 0.770042 -0.244793
v 0.371800 0.664295 -0.244600
v 0.371800 0.137201 -0.244600
v 0.290025 0.664295 -0.326765
v -0.237070 0.664295 -0.328005
v -0.237013 0.664295 -0.351783
v 0.289831 0.746262 -0.244793
v 0.288592 0.746262 0.282299
v 0.288592 0.770042 0.282299
v 0.394341 0.770042 0.282528
v 0.394341 0.664295 0.282549
v -0.237055 0.770042 -0.351783
v 0.290025 0.137201 -0.326765
v 0.370561 0.137201 0.282492
v 0.394091 0.031452 0.388296
v 0.394091 0.137299 0.388296
v 0.288343 0.137201 0.388048
v 0.288383 0.031452 0.388048
v 0.288592 0.055229 0.282299
v 0.289831 0.055229 -0.244793
v 0.394091 0.664196 0.388296
v 0.288343 0.664295 0.388048
v -0.238792 0.031452 0.386806
v -0.238503 0.031452 0.281057
v 0.394091 0.770042 0.388296
v 0.288383 0.770042 0.388048
v 0.370561 0.664295 0.282492
v -0.238750 0.664295 0.386806
v -0.238693 0.664295 0.363029
v 0.288399 0.664295 0.364267
v -0.238503 0.770042 0.281057
v -0.238792 0.770042 0.386806
v 0.288399 0.137201 0.364267
v -0.342762 0.031452 -0.352031
v -0.343010 0.031452 -0.246263
v -0.343010 0.137201 -0.246284
v -0.342762 0.137299 -0.352031
v -0.237013 0.137201 -0.351783
v -0.237070 0.137201 -0.328005
v -0.342762 0.664196 -0.352031
v -0.344250 0.137201 0.280811
v -0.344250 0.031452 0.280792
v -0.342762 0.770042 -0.352031
v -0.343010 0.664295 -0.246284
v -0.343010 0.770042 -0.246263
v -0.237263 0.770042 -0.246034
v -0.319233 0.664295 -0.246226
v -0.319233 0.137201 -0.246226
v -0.237263 0.746262 -0.246034
v -0.238503 0.746262 0.281057
v -0.344250 0.664295 0.280811
v -0.344250 0.770042 0.280792
v -0.320471 0.137201 0.280865
v -0.344498 0.031452 0.386559
v -0.344498 0.137299 0.386559
v -0.238750 0.137201 0.386806
v -0.238693 0.137201 0.363029
v -0.238503 0.055229 0.281057
v -0.237263 0.055229 -0.246034
v -0.344498 0.664196 0.386559
v -0.344498 0.770042 0.386559
v -0.320471 0.664295 0.280865
vt 0.275400 0.275400
vt 0.312300 0.275400
vt 0.312300 0.312300
vt 0.275400 0.312300
vt 0.010000 0.798300
vt 0.010000 0.761400
vt 0.046900 0.761400
vt 0.046900 0.798300
vt 0.267400 0.532900
vt 0.230600 0.532900
vt 0.230600 0.496000
vt 0.267400 0.496000
vt 0.230600 0.761400
vt 0.230600 0.798300
vt 0.312300 0.496000
vt 0.275400 0.496000
vt 0.046900 0.532900
vt 0.046900 0.496000
vt 0.230600 0.312300
vt 0.267400 0.312300
vt 0.532900 0.275400
vt 0.532900 0.312300
vt 0.496000 0.312300
vt 0.496000 0.275400
vt 0.267400 0.798300
vt 0.267400 0.761400
vt 0.010000 0.267400
vt 0.010000 0.230600
vt 0.046900 0.230600
vt 0.046900 0.267400
vt 0.932200 0.900100
vt 0.748500 0.900100
vt 0.748500 0.891800
vt 0.932200 0.891800
vt 0.940200 0.499400
vt 0.756500 0.499400
vt 0.756500 0.491100
vt 0.940200 0.491100
vt 0.940200 0.436600
vt 0.756500 0.436600
vt 0.756500 0.428300
vt 0.940200 0.428300
vt 0.532900 0.496000
vt 0.496000 0.496000
vt 0.230600 0.231900
vt 0.230600 0.267400
vt 0.230600 0.577700
vt 0.267400 0.577700
vt 0.940200 0.746900
vt 0.940200 0.755200
vt 0.756500 0.755200
vt 0.756500 0.746900
vt 0.724600 0.891800
vt 0.724600 0.900100
vt 0.540800 0.900100
vt 0.540800 0.891800
vt 0.275400 0.532900
vt 0.312300 0.532900
vt 0.532900 0.267400
vt 0.496000 0.267400
vt 0.496000 0.230600
vt 0.532900 0.230600
vt 0.010000 0.532900
vt 0.010000 0.496000
vt 0.540800 0.819400
vt 0.724600 0.819400
vt 0.724600 0.827600
vt 0.540800 0.827600
vt 0.312300 0.267400
vt 0.312300 0.230600
vt 0.010000 0.312300
vt 0.046900 0.312300
vt 0.532900 0.532900
vt 0.496000 0.532900
vt 0.275400 0.267400
vt 0.275400 0.230600
vt 0.267400 0.267400
vt 0.267400 0.231900
vt 0.940200 0.819400
vt 0.940200 0.827600
vt 0.756500 0.827600
vt 0.756500 0.819400
vt 0.540800 0.715000
vt 0.540800 0.706700
vt 0.724600 0.706700
vt 0.724600 0.715000
vt 0.230600 0.048100
vt 0.267400 0.048100
vt 0.275400 0.046800
vt 0.312300 0.046900
vt 0.756500 0.404300
vt 0.756500 0.396000
vt 0.940200 0.396000
vt 0.940200 0.404300
vt 0.540800 0.924000
vt 0.724600 0.924000
vt 0.724600 0.932300
vt 0.540800 0.932300
vt 0.540800 0.267400
vt 0.540800 0.230600
vt 0.577700 0.230600
vt 0.577700 0.267400
vt 0.010000 0.540800
vt 0.046900 0.540800
vt 0.046900 0.577700
vt 0.010000 0.577700
vt 0.267400 0.275400
vt 0.230600 0.275400
vt 0.756500 0.275400
vt 0.940200 0.275400
vt 0.940200 0.283700
vt 0.756500 0.283700
vt 0.230600 0.540800
vt 0.577700 0.046900
vt 0.540800 0.046900
vt 0.046900 0.275400
vt 0.798300 0.267400
vt 0.761400 0.267400
vt 0.761400 0.230600
vt 0.798300 0.230600
vt 0.267400 0.540800
vt 0.010000 0.010000
vt 0.046900 0.010000
vt 0.046900 0.046900
vt 0.010000 0.046800
vt 0.940200 0.651900
vt 0.940200 0.660200
vt 0.756500 0.660200
vt 0.756500 0.651900
vt 0.756500 0.620000
vt 0.756500 0.611700
vt 0.940200 0.611700
vt 0.940200 0.620000
vt 0.761400 0.046900
vt 0.798300 0.046900
vt 0.230600 0.010000
vt 0.932200 0.795400
vt 0.748500 0.795400
vt 0.748500 0.787100
vt 0.932200 0.787100
vt 0.724600 0.964500
vt 0.540800 0.964500
vt 0.540800 0.956200
vt 0.724600 0.956200
vt 0.540800 0.010000
vt 0.577700 0.010000
vt 0.532900 0.010000
vt 0.532900 0.046800
vt 0.496000 0.046900
vt 0.496000 0.010000
vt 0.010000 0.275400
vt 0.940200 0.706700
vt 0.940200 0.715000
vt 0.756500 0.715000
vt 0.756500 0.706700
vt 0.940200 0.571500
vt 0.940200 0.579800
vt 0.756500 0.579800
vt 0.756500 0.571500
vt 0.312300 0.010000
vt 0.798300 0.010000
vt 0.761400 0.010000
vt 0.275400 0.010000
vt 0.267400 0.010000
vt 0.932200 0.867800
vt 0.748500 0.867800
vt 0.748500 0.859600
vt 0.932200 0.859600
vt 0.540800 0.787100
vt 0.724600 0.787100
vt 0.724600 0.795400
vt 0.540800 0.795400
vt 0.540800 0.867800
vt 0.540800 0.859600
vt 0.724600 0.859600
vt 0.724600 0.867800
vt 0.940200 0.355800
vt 0.940200 0.364100
vt 0.756500 0.364100
vt 0.756500 0.355800
vt 0.724600 0.755200
vt 0.540800 0.755200
vt 0.540800 0.746900
vt 0.724600 0.746900
vt 0.940200 0.531300
vt 0.940200 0.539600
vt 0.756500 0.539600
vt 0.756500 0.531300
vt 0.940200 0.315600
vt 0.940200 0.323900
vt 0.756500 0.323900
vt 0.756500 0.315600
vt 0.459200 0.724600
vt 0.275400 0.724600
vt 0.275400 0.540800
vt 0.459200 0.540800
vt 0.724600 0.674800
vt 0.540800 0.674800
vt 0.540800 0.491100
vt 0.724600 0.491100
vt 0.193700 0.806300
vt 0.193700 0.990000
vt 0.010000 0.990000
vt 0.010000 0.806300
vt 0.275400 0.940200
vt 0.275400 0.756500
vt 0.459200 0.756500
vt 0.459200 0.940200
vt 0.540800 0.459200
vt 0.540800 0.275400
vt 0.724600 0.275400
vt 0.724600 0.459200
vt 0.806300 0.010000
vt 0.990000 0.010000
vt 0.990000 0.193700
vt 0.806300 0.193700
vn 0.999997 0.000000 0.002353
vn 0.999997 0.000000 0.002353
vn 0.999997 0.000000 0.002353
vn 0.999997 0.000000 0.002353
vn 0.002353 0.000000 -0.999997
vn 0.002353 0.000000 -0.999997
vn 0.002353 0.000000 -0.999997
vn 0.002353 0.000000 -0.999997
vn 0.000000 -1.000000 0.000000
vn 0.000000 -1.000000 0.000000
vn 0.000000 -1.000000 0.000000
vn 0.000000 -1.000000 0.000000
vn 0.002353 0.000000 -0.999997
vn 0.002353 0.000000 -0.999997
vn 0.002353 0.000000 -0.999997
vn 0.002353 0.000000 -0.999997
vn 0.999997 0.000000 0.002353
vn 0.999997 0.000000 0.002353
vn 0.999997 0.000000 0.002353
vn 0.999997 0.000000 0.002353
vn 0.000000 -1.000000 0.000000
vn 0.000000 -1.000000 0.000000
vn 0.000000 -1.000000 0.000000
vn 0.000000 -1.000000 0.000000
vn 0.000000 -1.000000 0.000000
vn 0.000000 -1.000000 0.000000
vn 0.000000 -1.000000 0.000000
vn 0.000000 -1.000000 0.000000
vn 0.999997 0.000000 0.002353
vn 0.999997 0.000000 0.002353
vn 0.999997 0.000000 0.002353
vn 0.999997 0.000000 0.002353
vn 0.002353 0.000000 -0.999997
vn 0.002353 0.000000 -0.999997
vn 0.002353 0.000000 -0.999997
vn 0.002353 0.000000 -0.999997
vn 0.000000 1.000000 0.000000
vn 0.000000 1.000000 0.000000
vn 0.000000 1.000000 0.000000
vn 0.000000 1.000000 0.000000
vn -0.002353 0.000000 0.999997
vn -0.002353 0.000000 0.999997
vn -0.002353 0.000000 0.999997
vn -0.002353 0.000000 0.999997
vn 0.000000 -1.000000 0.000000
vn 0.000000 -1.000000 0.000000
vn 0.000000 -1.000000 0.000000
vn 0.000000 -1.000000 0.000000
vn -0.999997 0.000000 -0.002353
vn -0.999997 0.000000 -0.002353
vn -0.999997 0.000000 -0.002353
vn -0.999997 0.000000 -0.002353
vn 0.999997 0.000000 0.002353
vn 0.999997 0.000000 0.002353
vn 0.999997 0.000000 0.002353
vn 0.999997 0.000000 0.002353
vn 0.999997 0.000000 0.002353
vn 0.999997 0.000000 0.002353
vn 0.999997 0.000000 0.002353
vn 0.999997 0.000000 0.002353
vn 0.000000 1.000000 0.000000
vn 0.000000 1.000000 0.000000
vn 0.000000 1.000000 0.000000
vn 0.000000 1.000000 0.000000
vn 0.002353 0.000000 -0.999997
vn 0.002353 0.000000 -0.999997
vn 0.002353 0.000000 -0.999997
vn 0.002353 0.000000 -0.999997
vn -0.999997 0.000000 -0.002353
vn -0.999997 0.000000 -0.002353
vn -0.999997 0.000000 -0.002353
vn -0.999997 0.000000 -0.002353
vn 0.000000 1.000000 0.000000
vn 0.000000 1.000000 0.000000
vn 0.000000 1.000000 0.000000
vn 0.000000 1.000000 0.000000
vn 0.999997 0.000000 0.002353
vn 0.999997 0.000000 0.002353
vn 0.999997 0.000000 0.002353
vn 0.999997 0.000000 0.002353
vn -0.002353 0.000000 0.999997
vn -0.002353 0.000000 0.999997
vn -0.002353 0.000000 0.999997
vn -0.002353 0.000000 0.999997
vn 0.000000 -1.000000 0.000000
vn 0.000000 -1.000000 0.000000
vn 0.000000 -1.000000 0.000000
vn 0.000000 -1.000000 0.000000
vn -0.999997 0.000000 -0.002353
vn -0.999997 0.000000 -0.002353
vn -0.999997 0.000000 -0.002353
vn -0.999997 0.000000 -0.002353
vn -0.002353 0.000000 0.999997
vn -0.002353 0.000000 0.999997
vn -0.002353 0.000000 0.999997
vn -0.002353 0.000000 0.999997
vn 0.000000 -1.000000 0.000000
vn 0.000000 -1.000000 0.000000
vn 0.000000 -1.000000 0.000000
vn 0.000000 -1.000000 0.000000
vn 0.999997 0.000000 0.002353
vn 0.999997 0.000000 0.002353
vn 0.999997 0.000000 0.002353
vn 0.999997 0.000000 0.002353
vn -0.002353 0.000000 0.999997
vn -0.002353 0.000000 0.999997
vn -0.002353 0.000000 0.999997
vn -0.002353 0.000000 0.999997
vn 0.000000 1.000000 0.000000
vn 0.000000 1.000000 0.000000
vn 0.000000 1.000000 0.000000
vn 0.000000 1.000000 0.000000
vn 0.002353 0.000000 -0.999997
vn 0.002353 0.000000 -0.999997
vn 0.002353 0.000000 -0.999997
vn 0.002353 0.000000 -0.999997
vn 0.000000 -1.000000 0.000000
vn 0.000000 -1.000000 0.000000
vn 0.000000 -1.000000 0.000000
vn 0.000000 -1.000000 0.000000
vn 0.999997 0.000000 0.002353
vn 0.999997 0.000000 0.002353
vn 0.999997 0.000000 0.002353
vn 0.999997 0.000000 0.002353
vn 0.000000 1.000000 0.000000
vn 0.000000 1.000000 0.000000
vn 0.000000 1.000000 0.000000
vn 0.000000 1.000000 0.000000
vn -0.002353 0.000000 0.999997
vn -0.002353 0.000000 0.999997
vn -0.002353 0.000000 0.999997
vn -0.002353 0.000000 0.999997
vn -0.999997 0.000000 -0.002353
vn -0.999997 0.000000 -0.002353
vn -0.999997 0.000000 -0.002353
vn -0.999997 0.000000 -0.002353
vn 0.000000 -1.000000 0.000000
vn 0.000000 -1.000000 0.000000
vn 0.000000 -1.000000 0.000000
vn 0.000000 -1.000000 0.000000
vn -0.999997 0.000000 -0.002353
vn -0.999997 0.000000 -0.002353
vn -0.999997 0.000000 -0.002353
vn -0.999997 0.000000 -0.002353
vn 0.002353 0.000000 -0.999997
vn 0.002353 0.000000 -0.999997
vn 0.002353 0.000000 -0.999997
vn 0.002353 0.000000 -0.999997
vn 0.000000 -1.000000 0.000000
vn 0.000000 -1.000000 0.000000
vn 0.000000 -1.000000 0.000000
vn 0.000000 -1.000000 0.000000
vn 0.000000 1.000000 0.000000
vn 0.000000 1.000000 0.000000
vn 0.000000 1.000000 0.000000
vn 0.000000 1.000000 0.000000
vn 0.002353 0.000000 -0.999997
vn 0.002353 0.000000 -0.999997
vn 0.002353 0.000000 -0.999997
vn 0.002353 0.000000 -0.999997
vn -0.999997 0.000000 -0.002353
vn -0.999997 0.000000 -0.002353
vn -0.999997 0.000000 -0.002353
vn -0.999997 0.000000 -0.002353
vn 0.000000 -1.000000 0.000000
vn 0.000000 -1.000000 0.000000
vn 0.000000 -1.000000 0.000000
vn 0.000000 -1.000000 0.000000
vn 0.002353 0.000000 -0.999997
vn 0.002353 0.000000 -0.999997
vn 0.002353 0.000000 -0.999997
vn 0.002353 0.000000 -0.999997
vn -0.999997 0.000000 -0.002353
vn -0.999997 0.000000 -0.002353
vn -0.999997 0.000000 -0.002353
vn -0.999997 0.000000 -0.002353
vn 0.002353 0.000000 -0.999997
vn 0.002353 0.000000 -0.999997
vn 0.002353 0.000000 -0.999997
vn 0.002353 0.000000 -0.999997
vn 0.000000 1.000000 0.000000
vn 0.000000 1.000000 0.000000
vn 0.000000 1.000000 0.000000
vn 0.000000 1.000000 0.000000
vn -0.002353 0.000000 0.999997
vn -0.002353 0.000000 0.999997
vn -0.002353 0.000000 0.999997
vn -0.002353 0.000000 0.999997
vn 0.999997 0.000000 0.002353
vn 0.999997 0.000000 0.002353
vn 0.999997 0.000000 0.002353
vn 0.999997 0.000000 0.002353
vn -0.999997 0.000000 -0.002353
vn -0.999997 0.000000 -0.002353
vn -0.999997 0.000000 -0.002353
vn -0.999997 0.000000 -0.002353
vn -0.999997 0.000000 -0.002353
vn -0.999997 0.000000 -0.002353
vn -0.999997 0.000000 -0.002353
vn -0.999997 0.000000 -0.002353
vn 0.000000 1.000000 0.000000
vn 0.000000 1.000000 0.000000
vn 0.000000 1.000000 0.000000
vn 0.000000 1.000000 0.000000
vn 0.000000 1.000000 0.000000
vn 0.000000 1.000000 0.000000
vn 0.000000 1.000000 0.000000
vn 0.000000 1.000000 0.000000
vn 0.999997 0.000000 0.002353
vn 0.999997 0.000000 0.002353
vn 0.999997 0.000000 0.002353
vn 0.999997 0.000000 0.002353
vn 0.000000 1.000000 0.000000
vn 0.000000 1.000000 0.000000
vn 0.000000 1.000000 0.000000
vn 0.000000 1.000000 0.000000
vn -0.999997 0.000000 -0.002353
vn -0.999997 0.000000 -0.002353
vn -0.999997 0.000000 -0.002353
vn -0.999997 0.000000 -0.002353
vn -0.002353 0.000000 0.999997
vn -0.002353 0.000000 0.999997
vn -0.002353 0.000000 0.999997
vn -0.002353 0.000000 0.999997
vn 0.000000 -1.000000 0.000000
vn 0.000000 -1.000000 0.000000
vn 0.000000 -1.000000 0.000000
vn 0.000000 -1.000000 0.000000
vn 0.000000 1.000000 0.000000
vn 0.000000 1.000000 0.000000
vn 0.000000 1.000000 0.000000
vn 0.000000 1.000000 0.000000
vn 0.999997 0.000000 0.002353
vn 0.999997 0.000000 0.002353
vn 0.999997 0.000000 0.002353
vn 0.999997 0.000000 0.002353
vn -0.002353 0.000000 0.999997
vn -0.002353 0.000000 0.999997
vn -0.002353 0.000000 0.999997
vn -0.002353 0.000000 0.999997
vn -0.002353 0.000000 0.999997
vn -0.002353 0.000000 0.999997
vn -0.002353 0.000000 0.999997
vn -0.002353 0.000000 0.999997
vn -0.999997 0.000000 -0.002353
vn -0.999997 0.000000 -0.002353
vn -0.999997 0.000000 -0.002353
vn -0.999997 0.000000 -0.002353
vn -0.002353 0.000000 0.999997
vn -0.002353 0.000000 0.999997
vn -0.002353 0.000000 0.999997
vn -0.002353 0.000000 0.999997
vn 0.000000 1.000000 0.000000
vn 0.000000 1.000000 0.000000
vn 0.000000 1.000000 0.000000
vn 0.000000 1.000000 0.000000
vn 0.002353 0.000000 -0.999997
vn 0.002353 0.000000 -0.999997
vn 0.002353 0.000000 -0.999997
vn 0.002353 0.000000 -0.999997
vn -0.999997 0.000000 -0.002353
vn -0.999997 0.000000 -0.002353
vn -0.999997 0.000000 -0.002353
vn -0.999997 0.000000 -0.002353
vn 0.999997 0.000000 0.002353
vn 0.999997 0.000000 0.002353
vn 0.999997 0.000000 0.002353
vn 0.999997 0.000000 0.002353
vn 0.000000 -1.000000 0.000000
vn 0.000000 -1.000000 0.000000
vn 0.000000 -1.000000 0.000000
vn 0.000000 -1.000000 0.000000
vn -0.002353 0.000000 0.999997
vn -0.002353 0.000000 0.999997
vn -0.002353 0.000000 0.999997
vn -0.002353 0.000000 0.999997
vn -0.002353 0.000000 0.999997
vn -0.002353 0.000000 0.999997
vn -0.002353 0.000000 0.999997
vn -0.002353 0.000000 0.999997
vn 0.002353 0.000000 -0.999997
vn 0.002353 0.000000 -0.999997
vn 0.002353 0.000000 -0.999997
vn 0.002353 0.000000 -0.999997
vn 0.002353 0.000000 -0.999997
vn 0.002353 0.000000 -0.999997
vn 0.002353 0.000000 -0.999997
vn 0.002353 0.000000 -0.999997
vn 0.000000 -1.000000 0.000000
vn 0.000000 -1.000000 0.000000
vn 0.000000 -1.000000 0.000000
vn 0.000000 -1.000000 0.000000
vn -0.002353 0.000000 0.999997
vn -0.002353 0.000000 0.999997
vn -0.002353 0.000000 0.999997
vn -0.002353 0.000000 0.999997
vn 0.999997 0.000000 0.002353
vn 0.999997 0.000000 0.002353
vn 0.999997 0.000000 0.002353
vn 0.999997 0.000000 0.002353
vn 0.000000 1.000000 0.000000
vn 0.000000 1.000000 0.000000
vn 0.000000 1.000000 0.000000
vn 0.000000 1.000000 0.000000
vn 0.002353 0.000000 -0.999997
vn 0.002353 0.000000 -0.999997
vn 0.002353 0.000000 -0.999997
vn 0.002353 0.000000 -0.999997
vn -0.999997 0.000000 -0.002353
vn -0.999997 0.000000 -0.002353
vn -0.999997 0.000000 -0.002353
vn -0.999997 0.000000 -0.002353
s off
g box:Box_low
usemtl initialShadingGroup
f 1/1/1 2/2/2 3/3/3 4/4/4
f 1/5/5 5/6/6 6/7/7 2/8/8
f 1/9/9 4/10/10 7/11/11 5/12/12
f 6/7/13 8/13/14 9/14/15 2/8/16
f 10/15/17 11/16/18 4/4/19 3/3/20
f 11/17/21 12/18/22 7/11/23 4/10/24
f 13/19/25 14/20/26 5/12/27 7/11/28
f 15/21/29 16/22/30 17/23/31 9/24/32
f 15/25/33 9/14/34 8/13/35 18/26/36
f 15/27/37 18/28/38 19/29/39 16/30/40
f 20/31/41 21/32/42 3/33/43 17/34/44
f 22/35/45 23/36/46 24/37/47 8/38/48
f 25/39/49 26/40/50 27/41/51 19/42/52
f 9/24/53 17/23/54 3/3/55 2/2/56
f 17/23/57 16/22/58 28/43/59 29/44/60
f 19/29/61 27/45/62 28/46/63 16/30/64
f 8/13/65 24/47/66 30/48/67 18/26/68
f 6/49/69 31/50/70 22/51/71 8/52/72
f 3/53/73 21/54/74 32/55/75 10/56/76
f 33/57/77 11/16/78 10/15/79 34/58/80
f 33/59/81 34/60/82 35/61/83 36/62/84
f 33/63/85 36/64/86 12/18/87 11/17/88
f 37/65/89 38/66/90 7/67/91 12/68/92
f 35/61/93 34/60/94 39/69/95 40/70/96
f 36/64/97 41/71/98 42/72/99 12/18/100
f 43/73/101 39/74/102 29/44/103 28/43/104
f 43/75/105 44/76/106 40/70/107 39/69/108
f 43/77/109 28/46/110 27/45/111 44/78/112
f 10/79/113 32/80/114 45/81/115 29/82/116
f 46/83/117 47/84/118 48/85/119 40/86/120
f 39/74/121 34/58/122 10/15/123 29/44/124
f 27/45/125 49/87/126 50/88/127 44/78/128
f 50/89/129 46/90/130 40/70/131 44/76/132
f 40/91/133 48/92/134 51/93/135 35/94/136
f 17/95/137 29/96/138 45/97/139 20/98/140
f 52/99/141 53/100/142 54/101/143 55/102/144
f 52/103/145 55/104/146 56/105/147 14/106/148
f 52/107/149 14/20/150 13/19/151 53/108/152
f 57/109/153 31/110/154 6/111/155 56/112/156
f 56/105/157 55/104/158 58/113/159 24/47/160
f 59/114/161 54/101/162 53/100/163 60/115/164
f 60/116/165 53/108/166 13/19/167 42/72/168
f 14/106/169 56/105/170 6/7/171 5/6/172
f 61/117/173 58/118/174 62/119/175 63/120/176
f 61/121/177 30/48/178 24/47/179 58/113/180
f 61/122/181 63/123/182 64/124/183 30/125/184
f 65/126/185 62/127/186 54/128/187 66/129/188
f 67/130/189 64/131/190 49/132/191 68/133/192
f 58/118/193 55/102/194 54/101/195 62/119/196
f 62/119/197 69/134/198 70/135/199 63/120/200
f 64/124/201 63/123/202 70/136/203 49/87/204
f 19/29/205 18/28/206 30/125/207 64/124/208
f 56/137/209 24/138/210 23/139/211 57/140/212
f 54/141/213 59/142/214 71/143/215 66/144/216
f 72/145/217 73/146/218 59/114/219 60/115/220
f 72/147/221 41/148/222 74/149/223 73/150/224
f 72/151/225 60/116/226 42/72/227 41/71/228
f 35/152/229 51/153/230 75/154/231 74/155/232
f 76/156/233 42/157/234 13/158/235 77/159/236
f 74/149/237 46/90/238 78/160/239 73/150/240
f 41/148/241 36/62/242 35/61/243 74/149/244
f 79/161/245 70/135/246 69/134/247 78/162/248
f 79/163/249 78/160/250 46/90/251 50/89/252
f 79/164/253 50/88/254 49/87/255 70/136/256
f 59/165/257 69/166/258 80/167/259 71/168/260
f 78/162/261 69/134/262 59/114/263 73/146/264
f 46/169/265 74/170/266 75/171/267 47/172/268
f 62/173/269 65/174/270 80/175/271 69/176/272
f 7/177/273 38/178/274 77/179/275 13/180/276
f 19/181/277 64/182/278 67/183/279 25/184/280
f 37/185/281 12/186/282 42/187/283 76/188/284
f 27/189/285 26/190/286 68/191/287 49/192/288
f 37/193/289 76/194/290 77/195/291 38/196/292
f 48/197/293 47/198/294 75/199/295 51/200/296
f 20/201/297 45/202/298 32/203/299 21/204/300
f 67/205/301 68/206/302 26/207/303 25/208/304
f 57/209/305 23/210/306 22/211/307 31/212/308
f 71/213/309 80/214/310 65/215/311 66/216/312
