# This file uses centimeters as units for non-parametric coordinates.

mtllib Base.mtl
g default
v 0.951057 0.001713 -0.309017
v 0.809018 0.001713 -0.587786
v 0.587786 0.001713 -0.809017
v 0.309017 0.001713 -0.951057
v 0.000000 0.001713 -1.000000
v -0.309017 0.001713 -0.951057
v -0.587785 0.001713 -0.809017
v -0.809017 0.001713 -0.587785
v -0.951057 0.001713 -0.309017
v -1.000000 0.001713 0.000000
v -0.951057 0.001713 0.309017
v -0.809017 0.001713 0.587785
v -0.587785 0.001713 0.809017
v -0.309017 0.001713 0.951057
v -0.000000 0.001713 1.000000
v 0.309017 0.001713 0.951057
v 0.587785 0.001713 0.809017
v 0.809017 0.001713 0.587785
v 0.951057 0.001713 0.309017
v 1.000000 0.001713 0.000000
v 0.951057 0.128569 -0.309017
v 0.809018 0.128569 -0.587786
v 0.587786 0.128569 -0.809017
v 0.309017 0.128569 -0.951057
v 0.000000 0.128569 -1.000000
v -0.309017 0.128569 -0.951057
v -0.587785 0.128569 -0.809017
v -0.809017 0.128569 -0.587785
v -0.951057 0.128569 -0.309017
v -1.000000 0.128569 0.000000
v -0.951057 0.128569 0.309017
v -0.809017 0.128569 0.587785
v -0.587785 0.128569 0.809017
v -0.309017 0.128569 0.951057
v -0.000000 0.128569 1.000000
v 0.309017 0.128569 0.951057
v 0.587785 0.128569 0.809017
v 0.809017 0.128569 0.587785
v 0.951057 0.128569 0.309017
v 1.000000 0.128569 0.000000
v 0.679814 0.352189 -0.220885
v 0.578284 0.352189 -0.420148
v 0.420148 0.352189 -0.578284
v 0.220885 0.352189 -0.679814
v -0.000000 0.352189 -0.714798
v -0.220885 0.352189 -0.679814
v -0.420148 0.352189 -0.578284
v -0.578284 0.352189 -0.420148
v -0.679813 0.352189 -0.220885
v -0.714798 0.352189 -0.000000
v -0.679813 0.352189 0.220885
v -0.578284 0.352189 0.420148
v -0.420148 0.352189 0.578284
v -0.220885 0.352189 0.679813
v -0.000000 0.352189 0.714798
v 0.220885 0.352189 0.679813
v 0.420148 0.352189 0.578284
v 0.578284 0.352189 0.420148
v 0.679813 0.352189 0.220885
v 0.714798 0.352189 -0.000000
v 0.679814 0.105669 -0.220885
v 0.578284 0.105669 -0.420148
v 0.420148 0.105669 -0.578284
v 0.220885 0.105669 -0.679814
v -0.000000 0.105669 -0.714798
v -0.220885 0.105669 -0.679814
v -0.420148 0.105669 -0.578284
v -0.578284 0.105669 -0.420148
v -0.679813 0.105669 -0.220885
v -0.714798 0.105669 -0.000000
v -0.679813 0.105669 0.220885
v -0.578284 0.105669 0.420148
v -0.420148 0.105669 0.578284
v -0.220885 0.105669 0.679813
v -0.000000 0.105669 0.714798
v 0.220885 0.105669 0.679813
v 0.420148 0.105669 0.578284
v 0.578284 0.105669 0.420148
v 0.679813 0.105669 0.220885
v 0.714798 0.105669 -0.000000
v -0.000000 0.105669 -0.000000
vt 0.137991 0.020132
vt 0.137992 0.020132
vt 0.137992 0.020132
vt 0.137992 0.020132
vt 0.975770 0.142089
vt 0.975770 0.142089
vt 0.975770 0.142089
vt 0.975770 0.142089
vt 0.975770 0.142090
vt 0.975770 0.142090
vt 0.975770 0.142090
vt 0.975770 0.142089
vt 0.975770 0.142090
vt 0.975770 0.142089
vt 0.137992 0.020132
vt 0.137992 0.020132
vt 0.137992 0.020132
vt 0.137992 0.020132
vt 0.137991 0.020132
vt 0.137992 0.020132
vt 0.166989 0.798384
vt 0.166989 0.798384
vt 0.166989 0.798383
vt 0.166989 0.798384
vt 0.794286 0.828914
vt 0.794286 0.828913
vt 0.794286 0.828914
vt 0.794286 0.828914
vt 0.794286 0.828914
vt 0.794286 0.828914
vt 0.794286 0.828913
vt 0.794286 0.828914
vt 0.794286 0.828914
vt 0.794286 0.828914
vt 0.166989 0.798383
vt 0.166989 0.798383
vt 0.166989 0.798384
vt 0.166989 0.798383
vt 0.166989 0.798383
vt 0.166989 0.798383
vt 0.495902 0.500000
vt 0.495902 0.500000
vt 0.495902 0.500000
vt 0.495902 0.500000
vt 0.495902 0.500000
vt 0.495902 0.500000
vt 0.495902 0.500000
vt 0.495902 0.500000
vt 0.495902 0.500000
vt 0.495902 0.500000
vt 0.495902 0.500000
vt 0.495902 0.500000
vt 0.495902 0.500000
vt 0.495902 0.500000
vt 0.495902 0.500000
vt 0.495902 0.500000
vt 0.495902 0.500000
vt 0.495902 0.500000
vt 0.495902 0.500000
vt 0.495902 0.500000
vt 0.495902 0.500000
vt 0.824816 0.798383
vt 0.824816 0.201616
vt 0.495902 0.500000
vt 0.495902 0.500000
vt 0.495902 0.500000
vt 0.495902 0.500000
vt 0.495902 0.500000
vt 0.495902 0.500000
vt 0.495902 0.500000
vt 0.495902 0.500000
vt 0.495902 0.500000
vt 0.495902 0.500000
vt 0.495902 0.500000
vt 0.495902 0.500000
vt 0.495902 0.500000
vt 0.495902 0.500000
vt 0.495902 0.500000
vt 0.495902 0.500000
vt 0.495902 0.500000
vt 0.495902 0.500000
vt 0.495902 0.500000
vt 0.495902 0.500000
vt 0.824816 0.798383
vt 0.824815 0.201616
vt 0.495902 0.500000
vt 0.824815 0.798383
vt 0.824816 0.201616
vt 0.495902 0.500000
vt 0.824816 0.798384
vt 0.824816 0.201616
vt 0.495902 0.500000
vt 0.824816 0.798383
vt 0.824816 0.201616
vt 0.495902 0.500000
vt 0.824816 0.798383
vt 0.197519 0.171087
vt 0.495902 0.500000
vt 0.794286 0.171087
vt 0.197519 0.171087
vt 0.495902 0.500000
vt 0.794286 0.171087
vt 0.197519 0.171087
vt 0.495902 0.500000
vt 0.794286 0.171087
vt 0.197519 0.171087
vt 0.495902 0.500000
vt 0.794286 0.171087
vt 0.197519 0.171087
vt 0.495902 0.500000
vt 0.794286 0.171087
vt 0.197519 0.171087
vt 0.495902 0.500000
vt 0.794286 0.171087
vt 0.197518 0.171086
vt 0.495902 0.500000
vt 0.794286 0.171086
vt 0.197519 0.171087
vt 0.495902 0.500000
vt 0.794286 0.171087
vt 0.197518 0.171087
vt 0.495902 0.500000
vt 0.794286 0.171087
vt 0.197519 0.171086
vt 0.495902 0.500000
vt 0.794286 0.171086
vt 0.824815 0.201616
vt 0.495902 0.500000
vt 0.824815 0.798384
vt 0.824816 0.201617
vt 0.495902 0.500000
vt 0.824816 0.798383
vt 0.824816 0.201616
vt 0.495902 0.500000
vt 0.824816 0.798384
vt 0.824816 0.201616
vt 0.495902 0.500000
vt 0.824816 0.798384
vt 0.824816 0.201617
vt 0.495902 0.500000
vt 0.137992 0.979868
vt 0.853813 0.979868
vt 0.166989 0.201616
vt 0.137991 0.979868
vt 0.853813 0.979868
vt 0.166989 0.201616
vt 0.137992 0.979868
vt 0.853813 0.979868
vt 0.166989 0.201616
vt 0.137992 0.979868
vt 0.853813 0.979869
vt 0.166989 0.201616
vt 0.137992 0.979869
vt 0.853813 0.979868
vt 0.166989 0.201616
vt 0.137992 0.979868
vt 0.016034 0.857911
vt 0.197519 0.828914
vt 0.016034 0.142089
vt 0.016034 0.857911
vt 0.197519 0.828914
vt 0.016034 0.142090
vt 0.016034 0.857911
vt 0.197519 0.828914
vt 0.016034 0.142089
vt 0.016034 0.857911
vt 0.197519 0.828913
vt 0.016034 0.142090
vt 0.016034 0.857911
vt 0.197519 0.828914
vt 0.016034 0.142090
vt 0.016034 0.857911
vt 0.197519 0.828914
vt 0.016034 0.142090
vt 0.016034 0.857911
vt 0.197518 0.828914
vt 0.016034 0.142089
vt 0.016034 0.857911
vt 0.197519 0.828914
vt 0.016034 0.142089
vt 0.016034 0.857911
vt 0.197518 0.828913
vt 0.016034 0.142089
vt 0.016034 0.857911
vt 0.197519 0.828914
vt 0.016034 0.142089
vt 0.853813 0.979868
vt 0.166989 0.201616
vt 0.137992 0.979868
vt 0.853813 0.979869
vt 0.166989 0.201617
vt 0.137992 0.979869
vt 0.853813 0.979868
vt 0.166989 0.201616
vt 0.137991 0.979868
vt 0.853813 0.979868
vt 0.166989 0.201616
vt 0.137992 0.979868
vt 0.853813 0.979868
vt 0.166989 0.201617
vt 0.078465 0.669254
vt 0.326648 0.917437
vt 0.853813 0.020132
vt 0.326648 0.082563
vt 0.326648 0.917438
vt 0.853813 0.020132
vt 0.326648 0.082563
vt 0.326648 0.917438
vt 0.853813 0.020132
vt 0.326648 0.082563
vt 0.326648 0.917438
vt 0.853813 0.020132
vt 0.326648 0.082563
vt 0.326648 0.917437
vt 0.853813 0.020132
vt 0.326648 0.082563
vt 0.326648 0.917438
vt 0.975770 0.857911
vt 0.326648 0.082562
vt 0.326648 0.917438
vt 0.975770 0.857911
vt 0.326648 0.082562
vt 0.326648 0.917438
vt 0.975770 0.857911
vt 0.326648 0.082563
vt 0.326648 0.917438
vt 0.975770 0.857911
vt 0.326648 0.082562
vt 0.326648 0.917438
vt 0.975770 0.857911
vt 0.326648 0.082562
vt 0.326648 0.917438
vt 0.975770 0.857911
vt 0.326648 0.082563
vt 0.326648 0.917437
vt 0.975770 0.857911
vt 0.326648 0.082563
vt 0.326648 0.917438
vt 0.975770 0.857911
vt 0.326648 0.082563
vt 0.326648 0.917438
vt 0.975770 0.857911
vt 0.326648 0.082562
vt 0.326648 0.917438
vt 0.975770 0.857911
vt 0.326648 0.082562
vt 0.326648 0.917438
vt 0.853813 0.020132
vt 0.326648 0.082563
vt 0.326648 0.917438
vt 0.853813 0.020132
vt 0.326648 0.082562
vt 0.326648 0.917438
vt 0.853813 0.020132
vt 0.326648 0.082562
vt 0.326648 0.917437
vt 0.853813 0.020132
vt 0.326648 0.082563
vt 0.913340 0.669254
vt 0.853813 0.020132
vt 0.665156 0.917437
vt 0.078465 0.330746
vt 0.665156 0.917438
vt 0.665156 0.082563
vt 0.665156 0.917438
vt 0.665156 0.082563
vt 0.665156 0.917438
vt 0.665156 0.082563
vt 0.665156 0.917437
vt 0.665156 0.082563
vt 0.665156 0.917438
vt 0.665156 0.082563
vt 0.665156 0.917438
vt 0.665156 0.082562
vt 0.665156 0.917438
vt 0.665156 0.082562
vt 0.665156 0.917438
vt 0.665156 0.082563
vt 0.665156 0.917438
vt 0.665156 0.082562
vt 0.665156 0.917438
vt 0.665156 0.082562
vt 0.665156 0.917437
vt 0.665156 0.082563
vt 0.665156 0.917438
vt 0.665156 0.082563
vt 0.665156 0.917438
vt 0.665156 0.082563
vt 0.665156 0.917438
vt 0.665156 0.082562
vt 0.665156 0.917438
vt 0.665156 0.082562
vt 0.665156 0.917438
vt 0.665156 0.082563
vt 0.665156 0.917438
vt 0.665156 0.082562
vt 0.665156 0.917437
vt 0.665156 0.082562
vt 0.913340 0.330746
vt 0.665156 0.082563
vn 0.951057 0.000000 -0.309016
vn 0.809017 0.000000 -0.587785
vn 0.809017 0.000000 -0.587785
vn 0.951057 0.000000 -0.309016
vn 0.587785 0.000000 -0.809017
vn 0.587785 0.000000 -0.809017
vn 0.309017 0.000000 -0.951057
vn 0.309017 0.000000 -0.951057
vn -0.000000 0.000000 -1.000000
vn -0.000000 0.000000 -1.000000
vn -0.309017 0.000000 -0.951057
vn -0.309017 0.000000 -0.951057
vn -0.587785 0.000000 -0.809017
vn -0.587785 0.000000 -0.809017
vn -0.809017 0.000000 -0.587785
vn -0.809017 0.000000 -0.587785
vn -0.951057 0.000000 -0.309017
vn -0.951057 0.000000 -0.309017
vn -1.000000 0.000000 0.000000
vn -1.000000 0.000000 0.000000
vn -0.951057 0.000000 0.309017
vn -0.951057 0.000000 0.309017
vn -0.809017 0.000000 0.587785
vn -0.809017 0.000000 0.587785
vn -0.587785 0.000000 0.809017
vn -0.587785 0.000000 0.809017
vn -0.309017 0.000000 0.951057
vn -0.309017 0.000000 0.951057
vn 0.000000 0.000000 1.000000
vn 0.000000 0.000000 1.000000
vn 0.309017 0.000000 0.951057
vn 0.309017 0.000000 0.951057
vn 0.587785 0.000000 0.809017
vn 0.587785 0.000000 0.809017
vn 0.809017 0.000000 0.587785
vn 0.809017 0.000000 0.587785
vn 0.951057 0.000000 0.309017
vn 0.951057 0.000000 0.309017
vn 1.000000 0.000000 0.000001
vn 1.000000 0.000000 0.000001
vn 0.586825 0.786944 -0.190671
vn 0.499183 0.786944 -0.362678
vn 0.499183 0.786944 -0.362678
vn 0.586825 0.786944 -0.190670
vn 0.362678 0.786944 -0.499183
vn 0.362678 0.786944 -0.499183
vn 0.190671 0.786944 -0.586825
vn 0.190671 0.786944 -0.586825
vn -0.000000 0.786944 -0.617024
vn -0.000000 0.786944 -0.617024
vn -0.190671 0.786944 -0.586825
vn -0.190671 0.786944 -0.586825
vn -0.362678 0.786944 -0.499183
vn -0.362678 0.786944 -0.499183
vn -0.499183 0.786944 -0.362678
vn -0.499183 0.786944 -0.362678
vn -0.586825 0.786944 -0.190671
vn -0.586825 0.786944 -0.190671
vn -0.617025 0.786944 0.000000
vn -0.617025 0.786944 -0.000000
vn -0.586825 0.786944 0.190671
vn -0.586825 0.786944 0.190671
vn -0.499183 0.786944 0.362678
vn -0.499183 0.786944 0.362678
vn -0.362678 0.786944 0.499183
vn -0.362678 0.786944 0.499183
vn -0.190671 0.786944 0.586825
vn -0.190671 0.786944 0.586825
vn 0.000000 0.786944 0.617024
vn 0.000000 0.786944 0.617024
vn 0.190671 0.786944 0.586825
vn 0.190671 0.786944 0.586825
vn 0.362678 0.786944 0.499183
vn 0.362678 0.786944 0.499183
vn 0.499183 0.786944 0.362678
vn 0.499183 0.786944 0.362678
vn 0.586825 0.786944 0.190671
vn 0.586825 0.786944 0.190671
vn 0.617025 0.786944 0.000001
vn 0.617025 0.786944 0.000001
vn -0.951057 -0.000000 0.309016
vn -0.809017 0.000000 0.587786
vn -0.809017 0.000000 0.587786
vn -0.951057 -0.000000 0.309016
vn -0.587785 0.000000 0.809017
vn -0.587785 0.000000 0.809017
vn -0.309017 0.000000 0.951057
vn -0.309017 0.000000 0.951057
vn 0.000000 0.000000 1.000000
vn 0.000000 0.000000 1.000000
vn 0.309017 0.000000 0.951056
vn 0.309017 0.000000 0.951056
vn 0.587785 0.000000 0.809017
vn 0.587785 0.000000 0.809017
vn 0.809017 0.000000 0.587785
vn 0.809017 0.000000 0.587785
vn 0.951057 0.000000 0.309017
vn 0.951057 0.000000 0.309017
vn 1.000000 0.000000 -0.000000
vn 1.000000 0.000000 -0.000000
vn 0.951056 0.000000 -0.309017
vn 0.951056 0.000000 -0.309017
vn 0.809017 0.000000 -0.587785
vn 0.809017 0.000000 -0.587785
vn 0.587785 0.000000 -0.809017
vn 0.587785 0.000000 -0.809017
vn 0.309017 0.000000 -0.951057
vn 0.309017 0.000000 -0.951057
vn -0.000000 0.000000 -1.000000
vn -0.000000 0.000000 -1.000000
vn -0.309017 0.000000 -0.951056
vn -0.309017 0.000000 -0.951056
vn -0.587785 0.000000 -0.809017
vn -0.587785 0.000000 -0.809017
vn -0.809017 0.000000 -0.587785
vn -0.809017 0.000000 -0.587785
vn -0.951057 0.000000 -0.309017
vn -0.951057 0.000000 -0.309017
vn -1.000000 -0.000000 -0.000002
vn -1.000000 -0.000000 -0.000002
vn 0.000000 1.000000 0.000000
vn 0.000000 1.000000 0.000000
vn 0.000000 1.000000 0.000000
vn 0.000000 1.000000 -0.000000
vn 0.000000 1.000000 -0.000000
vn 0.000000 1.000000 -0.000000
vn 0.000000 1.000000 0.000000
vn 0.000000 1.000000 0.000000
vn 0.000000 1.000000 0.000000
vn 0.000000 1.000000 0.000000
vn 0.000000 1.000000 0.000000
vn 0.000000 1.000000 0.000000
vn 0.000000 1.000000 0.000000
vn 0.000000 1.000000 0.000000
vn 0.000000 1.000000 0.000000
vn 0.000000 1.000000 0.000000
vn 0.000000 1.000000 0.000000
vn 0.000000 1.000000 0.000000
vn 0.000000 1.000000 0.000000
vn 0.000000 1.000000 0.000000
vn 0.000000 1.000000 0.000000
vn 0.000000 1.000000 0.000000
vn 0.000000 1.000000 0.000000
vn 0.000000 1.000000 0.000000
vn 0.000000 1.000000 0.000000
vn 0.000000 1.000000 0.000000
vn 0.000000 1.000000 0.000000
vn 0.000000 1.000000 0.000000
vn 0.000000 1.000000 0.000000
vn 0.000000 1.000000 0.000000
vn 0.000000 1.000000 0.000000
vn 0.000000 1.000000 0.000000
vn 0.000000 1.000000 0.000000
vn 0.000000 1.000000 0.000000
vn 0.000000 1.000000 0.000000
vn 0.000000 1.000000 0.000000
vn 0.000000 1.000000 0.000000
vn 0.000000 1.000000 0.000000
vn 0.000000 1.000000 0.000000
vn 0.000000 1.000000 0.000000
vn 0.000000 1.000000 0.000000
vn 0.000000 1.000000 0.000000
vn 0.000000 1.000000 -0.000000
vn 0.000000 1.000000 -0.000000
vn 0.000000 1.000000 -0.000000
vn 0.000000 1.000000 -0.000000
vn 0.000000 1.000000 -0.000000
vn 0.000000 1.000000 -0.000000
vn 0.000000 1.000000 0.000000
vn 0.000000 1.000000 0.000000
vn 0.000000 1.000000 0.000000
vn 0.000000 1.000000 0.000000
vn 0.000000 1.000000 0.000000
vn 0.000000 1.000000 0.000000
vn 0.000000 1.000000 0.000000
vn 0.000000 1.000000 0.000000
vn 0.000000 1.000000 0.000000
vn 0.000000 1.000000 0.000000
vn 0.000000 1.000000 0.000000
vn 0.000000 1.000000 0.000000
s 1
g Base
usemtl lambert2SG
f 1/300/1 2/297/2 22/256/3 21/258/4
f 2/298/2 3/295/5 23/253/6 22/255/3
f 3/296/5 4/293/7 24/250/8 23/252/6
f 4/294/7 5/291/9 25/247/10 24/249/8
f 5/292/9 6/289/11 26/244/12 25/246/10
f 6/290/11 7/287/13 27/241/14 26/243/12
f 7/288/13 8/285/15 28/238/16 27/240/14
f 8/286/15 9/283/17 29/235/18 28/237/16
f 9/284/17 10/281/19 30/232/20 29/234/18
f 10/282/19 11/279/21 31/229/22 30/231/20
f 11/280/21 12/277/23 32/226/24 31/228/22
f 12/278/23 13/275/25 33/223/26 32/225/24
f 13/276/25 14/273/27 34/220/28 33/222/26
f 14/274/27 15/271/29 35/217/30 34/219/28
f 15/272/29 16/269/31 36/214/32 35/216/30
f 16/270/31 17/267/33 37/211/34 36/213/32
f 17/268/33 18/265/35 38/208/36 37/210/34
f 18/266/35 19/263/37 39/205/38 38/207/36
f 19/264/37 20/261/39 40/202/40 39/204/38
f 20/262/39 1/299/1 21/259/4 40/201/40
s 2
f 21/2/41 22/257/42 42/196/43 41/198/44
f 22/1/42 23/254/45 43/193/46 42/195/43
f 23/3/45 24/251/47 44/190/48 43/192/46
f 24/4/47 25/248/49 45/187/50 44/189/48
f 25/5/49 26/245/51 46/184/52 45/186/50
f 26/6/51 27/242/53 47/181/54 46/183/52
f 27/7/53 28/239/55 48/178/56 47/180/54
f 28/8/55 29/236/57 49/175/58 48/177/56
f 29/9/57 30/233/59 50/172/60 49/174/58
f 30/10/59 31/230/61 51/169/62 50/171/60
f 31/11/61 32/227/63 52/166/64 51/168/62
f 32/12/63 33/224/65 53/163/66 52/165/64
f 33/13/65 34/221/67 54/160/68 53/162/66
f 34/14/67 35/218/69 55/157/70 54/159/68
f 35/15/69 36/215/71 56/154/72 55/156/70
f 36/16/71 37/212/73 57/151/74 56/153/72
f 37/17/73 38/209/75 58/148/76 57/150/74
f 38/18/75 39/206/77 59/145/78 58/147/76
f 39/19/77 40/203/79 60/142/80 59/144/78
f 40/20/79 21/260/41 41/199/44 60/141/80
s 3
f 41/22/81 42/197/82 62/136/83 61/138/84
f 42/21/82 43/194/85 63/133/86 62/135/83
f 43/23/85 44/191/87 64/130/88 63/132/86
f 44/24/87 45/188/89 65/127/90 64/129/88
f 45/25/89 46/185/91 66/124/92 65/126/90
f 46/26/91 47/182/93 67/121/94 66/123/92
f 47/27/93 48/179/95 68/118/96 67/120/94
f 48/28/95 49/176/97 69/115/98 68/117/96
f 49/29/97 50/173/99 70/112/100 69/114/98
f 50/30/99 51/170/101 71/109/102 70/111/100
f 51/31/101 52/167/103 72/106/104 71/108/102
f 52/32/103 53/164/105 73/103/106 72/105/104
f 53/33/105 54/161/107 74/100/108 73/102/106
f 54/34/107 55/158/109 75/97/110 74/99/108
f 55/35/109 56/155/111 76/94/112 75/96/110
f 56/36/111 57/152/113 77/91/114 76/93/112
f 57/37/113 58/149/115 78/88/116 77/90/114
f 58/38/115 59/146/117 79/85/118 78/87/116
f 59/39/117 60/143/119 80/63/120 79/84/118
f 60/40/119 41/200/81 61/139/84 80/62/120
s off
f 61/42/121 62/137/122 81/82/123
f 62/41/124 63/134/125 81/81/126
f 63/43/127 64/131/128 81/80/129
f 64/44/130 65/128/131 81/79/132
f 65/45/133 66/125/134 81/78/135
f 66/46/136 67/122/137 81/77/138
f 67/47/139 68/119/140 81/76/141
f 68/48/142 69/116/143 81/75/144
f 69/49/145 70/113/146 81/74/147
f 70/50/148 71/110/149 81/73/150
f 71/51/151 72/107/152 81/72/153
f 72/52/154 73/104/155 81/71/156
f 73/53/157 74/101/158 81/70/159
f 74/54/160 75/98/161 81/69/162
f 75/55/163 76/95/164 81/68/165
f 76/56/166 77/92/167 81/67/168
f 77/57/169 78/89/170 81/66/171
f 78/58/172 79/86/173 81/65/174
f 79/59/175 80/64/176 81/61/177
f 80/60/178 61/140/179 81/83/180
